<?xml version="1.0" standalone="no"?><!DOCTYPE svg PUBLIC "-//W3C//DTD SVG 1.1//EN" "http://www.w3.org/Graphics/SVG/1.1/DTD/svg11.dtd">
<svg x="0.0000mm" y="0.0000mm" width="76.7290mm" height="26.4580mm" viewBox="0.0000 0.0000 76.7290 26.4580" version="1.1" xmlns="http://www.w3.org/2000/svg" shape-rendering="crispEdges">
<title>TBarCode - 11.12.1.16467</title>
<desc>BarCode licensed to MEM:TEC-IT Datenverarbeitung GmbH Internal License</desc>
<g fill="rgb(33%,33%,33%)">
</g>
<g fill="rgb(100%,100%,100%)" fill-opacity="0">
    <rect x="0.0000" y="0.0000" width="76.7290" height="26.4580" />
</g>
<g>
<rect x="0.0000" y="0.0000" width="1.0583" height="26.4580" />
<rect x="1.5875" y="0.0000" width="0.5292" height="26.4580" />
<rect x="3.1750" y="0.0000" width="0.5292" height="26.4580" />
<rect x="5.8208" y="0.0000" width="2.1167" height="26.4580" />
<rect x="8.9958" y="0.0000" width="0.5292" height="26.4580" />
<rect x="10.0541" y="0.0000" width="0.5292" height="26.4580" />
<rect x="11.6416" y="0.0000" width="0.5292" height="26.4580" />
<rect x="13.2291" y="0.0000" width="1.0583" height="26.4580" />
<rect x="16.4041" y="0.0000" width="0.5292" height="26.4580" />
<rect x="17.4625" y="0.0000" width="0.5292" height="26.4580" />
<rect x="19.0500" y="0.0000" width="0.5292" height="26.4580" />
<rect x="20.1083" y="0.0000" width="1.0583" height="26.4580" />
<rect x="23.2833" y="0.0000" width="0.5292" height="26.4580" />
<rect x="24.8708" y="0.0000" width="2.1167" height="26.4580" />
<rect x="27.5166" y="0.0000" width="0.5292" height="26.4580" />
<rect x="29.1041" y="0.0000" width="0.5292" height="26.4580" />
<rect x="30.6916" y="0.0000" width="1.0583" height="26.4580" />
<rect x="33.8666" y="0.0000" width="0.5292" height="26.4580" />
<rect x="34.9249" y="0.0000" width="0.5292" height="26.4580" />
<rect x="35.9833" y="0.0000" width="1.0583" height="26.4580" />
<rect x="38.0999" y="0.0000" width="0.5292" height="26.4580" />
<rect x="40.7457" y="0.0000" width="0.5292" height="26.4580" />
<rect x="41.8041" y="0.0000" width="1.0583" height="26.4580" />
<rect x="44.9791" y="0.0000" width="0.5292" height="26.4580" />
<rect x="46.5666" y="0.0000" width="0.5292" height="26.4580" />
<rect x="48.1541" y="0.0000" width="2.1167" height="26.4580" />
<rect x="51.3291" y="0.0000" width="0.5292" height="26.4580" />
<rect x="52.3874" y="0.0000" width="0.5292" height="26.4580" />
<rect x="53.9749" y="0.0000" width="0.5292" height="26.4580" />
<rect x="55.5624" y="0.0000" width="2.1167" height="26.4580" />
<rect x="58.2082" y="0.0000" width="0.5292" height="26.4580" />
<rect x="59.7957" y="0.0000" width="0.5292" height="26.4580" />
<rect x="61.3832" y="0.0000" width="2.1167" height="26.4580" />
<rect x="64.0290" y="0.0000" width="0.5292" height="26.4580" />
<rect x="65.0874" y="0.0000" width="1.0583" height="26.4580" />
<rect x="66.6749" y="0.0000" width="1.5875" height="26.4580" />
<rect x="69.8498" y="0.0000" width="1.0583" height="26.4580" />
<rect x="72.4957" y="0.0000" width="1.5875" height="26.4580" />
<rect x="74.6123" y="0.0000" width="0.5292" height="26.4580" />
<rect x="75.6707" y="0.0000" width="1.0583" height="26.4580" />
</g>
</svg>
