<svg width="2208" height="261" viewBox="0 0 2208 261" fill="none" xmlns="http://www.w3.org/2000/svg">
<g clip-path="url(#clip0_153_236)">
<path opacity="0.4" d="M4.10352 214.161L2203.11 7.84204L2207.43 53.95L8.42952 260.268L4.10352 214.161Z" fill="#212121"/>
<path d="M2.17188 208.476L2201.17 2.15796L2205.5 48.266L6.49788 254.583L2.17188 208.476Z" fill="#F2B5F7"/>
<path d="M2.17188 208.476L2201.17 2.15796L2205.5 48.266L6.49788 254.583L2.17188 208.476Z" stroke="#0C0C0C" stroke-width="4" stroke-miterlimit="10"/>
<path d="M675.101 173.925C677.073 173.434 678.274 171.437 677.782 169.465C677.291 167.492 675.294 166.292 673.322 166.784C671.35 167.275 670.149 169.272 670.641 171.244C671.132 173.216 673.129 174.417 675.101 173.925Z" fill="black"/>
<path d="M667.317 170.558L662.354 170.372C661.629 170.439 661.117 171.113 661.252 171.821C662.006 175.962 664.508 179.718 668.348 181.936C668.976 182.305 669.789 182.051 670.088 181.389L671.486 176.537C671.683 176.127 671.547 175.625 671.157 175.382C669.635 174.442 668.629 172.931 668.286 171.264C668.194 170.813 667.77 170.517 667.314 170.548L667.317 170.558Z" fill="black"/>
<path d="M677.374 164.311L679.944 160.063C680.014 159.906 680.051 159.736 680.052 159.564C680.052 159.392 680.017 159.221 679.947 159.064C679.878 158.906 679.776 158.765 679.649 158.649C679.521 158.533 679.371 158.446 679.208 158.392C675.224 157.045 670.729 157.413 666.917 159.692C666.289 160.065 666.123 160.889 666.55 161.484L670.11 165.059C670.376 165.426 670.883 165.557 671.281 165.334C672.846 164.46 674.656 164.318 676.275 164.821C676.712 164.96 677.18 164.73 677.374 164.311V164.311Z" fill="black"/>
<path d="M677.943 175.856L680.362 180.189C680.464 180.327 680.593 180.442 680.742 180.527C680.89 180.612 681.055 180.666 681.225 180.685C681.395 180.703 681.567 180.686 681.73 180.635C681.894 180.584 682.045 180.499 682.174 180.387C683.773 178.972 685.044 177.226 685.901 175.271C686.757 173.315 687.177 171.196 687.133 169.062C687.116 168.334 686.481 167.771 685.761 167.858L680.897 169.183C680.446 169.234 680.084 169.602 680.077 170.068C680.058 171.855 679.293 173.499 678.048 174.665C677.713 174.975 677.679 175.499 677.945 175.865L677.943 175.856Z" fill="black"/>
<path d="M356.08 204.091C358.052 203.6 359.252 201.603 358.761 199.631C358.269 197.659 356.272 196.458 354.3 196.95C352.328 197.441 351.128 199.438 351.619 201.41C352.111 203.383 354.108 204.583 356.08 204.091Z" fill="black"/>
<path d="M348.295 200.724L343.333 200.538C342.608 200.605 342.095 201.279 342.231 201.988C342.984 206.128 345.487 209.885 349.327 212.102C349.955 212.471 350.767 212.217 351.066 211.555L352.464 206.703C352.661 206.293 352.526 205.791 352.136 205.548C350.613 204.609 349.608 203.097 349.265 201.43C349.173 200.979 348.749 200.683 348.293 200.714L348.295 200.724Z" fill="black"/>
<path d="M358.353 194.477L360.922 190.23C360.993 190.073 361.029 189.902 361.03 189.73C361.031 189.558 360.995 189.388 360.926 189.23C360.856 189.073 360.755 188.931 360.627 188.816C360.5 188.7 360.35 188.612 360.186 188.558C356.202 187.211 351.708 187.579 347.896 189.858C347.267 190.231 347.102 191.056 347.528 191.65L351.088 195.226C351.355 195.592 351.862 195.723 352.26 195.501C353.825 194.626 355.634 194.484 357.254 194.988C357.69 195.126 358.159 194.896 358.353 194.477V194.477Z" fill="black"/>
<path d="M358.921 206.022L361.341 210.355C361.443 210.493 361.572 210.608 361.72 210.693C361.869 210.779 362.033 210.832 362.203 210.851C362.373 210.869 362.546 210.853 362.709 210.801C362.872 210.75 363.023 210.666 363.152 210.553C364.751 209.138 366.023 207.393 366.879 205.437C367.736 203.481 368.156 201.363 368.111 199.228C368.095 198.501 367.46 197.937 366.739 198.024L361.876 199.35C361.424 199.4 361.063 199.768 361.055 200.234C361.037 202.022 360.271 203.665 359.026 204.831C358.691 205.141 358.657 205.665 358.924 206.032L358.921 206.022Z" fill="black"/>
<path d="M38.8211 233.68C40.7932 233.188 41.9935 231.191 41.5021 229.219C41.0107 227.247 39.0136 226.047 37.0415 226.538C35.0694 227.03 33.8691 229.027 34.3605 230.999C34.8519 232.971 36.849 234.171 38.8211 233.68Z" fill="black"/>
<path d="M31.0363 230.312L26.0741 230.126C25.3489 230.194 24.8366 230.868 24.9719 231.576C25.7255 235.717 28.228 239.473 32.068 241.69C32.6959 242.059 33.5086 241.805 33.8074 241.144L35.2057 236.291C35.4025 235.882 35.2671 235.38 34.8768 235.137C33.3544 234.197 32.349 232.685 32.0059 231.019C31.9141 230.567 31.4899 230.271 31.0339 230.302L31.0363 230.312Z" fill="black"/>
<path d="M41.0941 224.065L43.6633 219.818C43.7338 219.661 43.7706 219.491 43.7713 219.319C43.7719 219.146 43.7363 218.976 43.667 218.819C43.5976 218.661 43.4959 218.52 43.3685 218.404C43.2411 218.288 43.0908 218.2 42.9273 218.146C38.9435 216.8 34.449 217.167 30.637 219.447C30.0086 219.82 29.843 220.644 30.2695 221.239L33.8295 224.814C34.096 225.18 34.6028 225.312 35.0008 225.089C36.5658 224.215 38.3753 224.073 39.995 224.576C40.4315 224.715 40.8997 224.485 41.0941 224.065V224.065Z" fill="black"/>
<path d="M41.6624 235.61L44.082 239.944C44.1838 240.081 44.3129 240.197 44.4614 240.282C44.6098 240.367 44.7743 240.421 44.9445 240.439C45.1146 240.458 45.2868 240.441 45.4502 240.39C45.6135 240.339 45.7645 240.254 45.8936 240.142C47.4924 238.727 48.7642 236.981 49.6205 235.025C50.4769 233.07 50.8972 230.951 50.8524 228.817C50.836 228.089 50.201 227.526 49.4806 227.613L44.6168 228.938C44.1656 228.988 43.8039 229.357 43.7963 229.823C43.7779 231.61 43.0127 233.254 41.7676 234.419C41.4326 234.73 41.3983 235.253 41.6648 235.62L41.6624 235.61Z" fill="black"/>
<path d="M993.501 144.192C995.473 143.7 996.673 141.703 996.182 139.731C995.69 137.759 993.693 136.559 991.721 137.05C989.749 137.541 988.549 139.538 989.04 141.51C989.532 143.483 991.529 144.683 993.501 144.192Z" fill="black"/>
<path d="M985.725 140.821L980.763 140.636C980.037 140.703 979.525 141.377 979.66 142.085C980.414 146.226 982.916 149.982 986.757 152.2C987.384 152.569 988.197 152.315 988.496 151.653L989.894 146.801C990.091 146.391 989.956 145.889 989.565 145.646C988.043 144.706 987.038 143.194 986.694 141.528C986.603 141.077 986.178 140.781 985.722 140.812L985.725 140.821Z" fill="black"/>
<path d="M995.773 134.577L998.342 130.33C998.413 130.173 998.449 130.002 998.45 129.83C998.451 129.658 998.415 129.488 998.346 129.33C998.276 129.173 998.175 129.031 998.047 128.916C997.92 128.8 997.769 128.712 997.606 128.658C993.622 127.311 989.128 127.679 985.316 129.958C984.687 130.331 984.522 131.156 984.948 131.75L988.508 135.326C988.775 135.692 989.282 135.823 989.679 135.601C991.245 134.726 993.054 134.585 994.674 135.088C995.11 135.226 995.578 134.996 995.773 134.577V134.577Z" fill="black"/>
<path d="M996.352 146.119L998.771 150.453C998.873 150.59 999.002 150.706 999.151 150.791C999.299 150.876 999.464 150.93 999.634 150.948C999.804 150.967 999.976 150.95 1000.14 150.899C1000.3 150.848 1000.45 150.763 1000.58 150.651C1002.18 149.236 1003.45 147.49 1004.31 145.534C1005.17 143.579 1005.59 141.46 1005.54 139.326C1005.53 138.598 1004.89 138.035 1004.17 138.122L999.306 139.447C998.855 139.498 998.493 139.866 998.486 140.332C998.467 142.119 997.702 143.763 996.457 144.928C996.122 145.239 996.088 145.763 996.354 146.129L996.352 146.119Z" fill="black"/>
<path d="M1314.88 114.606C1316.85 114.115 1318.06 112.118 1317.56 110.146C1317.07 108.174 1315.08 106.973 1313.1 107.465C1311.13 107.956 1309.93 109.953 1310.42 111.925C1310.91 113.897 1312.91 115.098 1314.88 114.606Z" fill="black"/>
<path d="M1307.11 111.236L1302.14 111.051C1301.42 111.118 1300.91 111.792 1301.04 112.5C1301.8 116.641 1304.3 120.397 1308.14 122.614C1308.77 122.983 1309.58 122.729 1309.88 122.068L1311.28 117.216C1311.47 116.806 1311.34 116.304 1310.95 116.061C1309.42 115.121 1308.42 113.609 1308.08 111.943C1307.98 111.492 1307.56 111.195 1307.1 111.227L1307.11 111.236Z" fill="black"/>
<path d="M1317.15 104.992L1319.72 100.744C1319.79 100.587 1319.83 100.417 1319.83 100.245C1319.83 100.073 1319.8 99.9026 1319.73 99.745C1319.66 99.5875 1319.56 99.4462 1319.43 99.3304C1319.3 99.2146 1319.15 99.1269 1318.99 99.0728C1315 97.7261 1310.51 98.0938 1306.7 100.373C1306.07 100.746 1305.9 101.571 1306.33 102.165L1309.89 105.74C1310.16 106.107 1310.66 106.238 1311.06 106.015C1312.63 105.141 1314.44 104.999 1316.06 105.503C1316.49 105.641 1316.96 105.411 1317.15 104.992V104.992Z" fill="black"/>
<path d="M1317.73 116.534L1320.15 120.868C1320.26 121.005 1320.38 121.12 1320.53 121.206C1320.68 121.291 1320.85 121.345 1321.02 121.363C1321.19 121.382 1321.36 121.365 1321.52 121.314C1321.68 121.262 1321.84 121.178 1321.96 121.065C1323.56 119.651 1324.84 117.905 1325.69 115.949C1326.55 113.993 1326.97 111.875 1326.92 109.74C1326.91 109.013 1326.27 108.45 1325.55 108.536L1320.69 109.862C1320.24 109.912 1319.88 110.281 1319.87 110.746C1319.85 112.534 1319.08 114.178 1317.84 115.343C1317.5 115.653 1317.47 116.177 1317.74 116.544L1317.73 116.534Z" fill="black"/>
<path d="M1635.05 84.2926C1637.03 83.8012 1638.23 81.8041 1637.74 79.832C1637.24 77.8599 1635.25 76.6596 1633.27 77.151C1631.3 77.6424 1630.1 79.6395 1630.59 81.6116C1631.09 83.5837 1633.08 84.784 1635.05 84.2926Z" fill="black"/>
<path d="M1627.28 80.9225L1622.32 80.7368C1621.59 80.8042 1621.08 81.478 1621.21 82.1863C1621.97 86.327 1624.47 90.0833 1628.31 92.3006C1628.94 92.6698 1629.75 92.4158 1630.05 91.7539L1631.45 86.9018C1631.64 86.4921 1631.51 85.9899 1631.12 85.7471C1629.6 84.8073 1628.59 83.2955 1628.25 81.629C1628.16 81.1778 1627.73 80.8816 1627.28 80.9128L1627.28 80.9225Z" fill="black"/>
<path d="M1637.33 74.678L1639.9 70.4308C1639.97 70.2737 1640 70.1036 1640 69.9314C1640 69.7592 1639.97 69.5889 1639.9 69.4313C1639.83 69.2737 1639.73 69.1325 1639.6 69.0167C1639.47 68.9009 1639.32 68.8132 1639.16 68.7591C1635.18 67.4124 1630.68 67.78 1626.87 70.0594C1626.24 70.4324 1626.08 71.2569 1626.5 71.8514L1630.06 75.4267C1630.33 75.7931 1630.84 75.9245 1631.23 75.7017C1632.8 74.8273 1634.61 74.6856 1636.23 75.1889C1636.66 75.3275 1637.13 75.0974 1637.33 74.678V74.678Z" fill="black"/>
<path d="M1637.91 86.2203L1640.33 90.5539C1640.43 90.6915 1640.56 90.8066 1640.7 90.8919C1640.85 90.9772 1641.02 91.0308 1641.19 91.0494C1641.36 91.068 1641.53 91.0511 1641.69 90.9999C1641.86 90.9487 1642.01 90.8642 1642.14 90.7517C1643.74 89.337 1645.01 87.5911 1645.86 85.6354C1646.72 83.6798 1647.14 81.5611 1647.1 79.4267C1647.08 78.6991 1646.44 78.1359 1645.72 78.2226L1640.86 79.548C1640.41 79.5986 1640.05 79.967 1640.04 80.4326C1640.02 82.2201 1639.26 83.8639 1638.01 85.0296C1637.68 85.3397 1637.64 85.8636 1637.91 86.23L1637.91 86.2203Z" fill="black"/>
<path d="M1950.13 54.2172C1952.1 53.7258 1953.3 51.7287 1952.81 49.7566C1952.32 47.7845 1950.32 46.5841 1948.35 47.0756C1946.38 47.567 1945.18 49.564 1945.67 51.5361C1946.16 53.5082 1948.16 54.7086 1950.13 54.2172Z" fill="black"/>
<path d="M1942.35 50.8471L1937.39 50.6614C1936.67 50.7287 1936.15 51.4026 1936.29 52.1109C1937.04 56.2515 1939.55 60.0079 1943.39 62.2252C1944.01 62.5943 1944.83 62.3403 1945.13 61.6784L1946.52 56.8264C1946.72 56.4166 1946.59 55.9145 1946.2 55.6716C1944.67 54.7318 1943.67 53.2201 1943.32 51.5536C1943.23 51.1024 1942.81 50.8062 1942.35 50.8374L1942.35 50.8471Z" fill="black"/>
<path d="M1952.4 44.6026L1954.97 40.3553C1955.04 40.1983 1955.08 40.0281 1955.08 39.856C1955.08 39.6838 1955.04 39.5134 1954.98 39.3559C1954.91 39.1983 1954.8 39.057 1954.68 38.9413C1954.55 38.8255 1954.4 38.7377 1954.24 38.6837C1950.25 37.337 1945.76 37.7046 1941.95 39.9839C1941.32 40.357 1941.15 41.1815 1941.58 41.776L1945.14 45.3513C1945.4 45.7177 1945.91 45.8491 1946.31 45.6262C1947.87 44.7519 1949.68 44.6102 1951.3 45.1135C1951.74 45.2521 1952.21 45.022 1952.4 44.6026V44.6026Z" fill="black"/>
<path d="M1952.98 56.1449L1955.4 60.4784C1955.5 60.6161 1955.63 60.7312 1955.78 60.8165C1955.93 60.9017 1956.09 60.9554 1956.26 60.974C1956.43 60.9925 1956.61 60.9757 1956.77 60.9245C1956.93 60.8732 1957.08 60.7887 1957.21 60.6763C1958.81 59.2615 1960.08 57.5157 1960.94 55.56C1961.8 53.6043 1962.22 51.4857 1962.17 49.3512C1962.16 48.6236 1961.52 48.0604 1960.8 48.1472L1955.94 49.4726C1955.48 49.5231 1955.12 49.8915 1955.12 50.3572C1955.1 52.1447 1954.33 53.7885 1953.09 54.9541C1952.75 55.2643 1952.72 55.7882 1952.98 56.1546L1952.98 56.1449Z" fill="black"/>
<path d="M400.818 181.019L405.758 180.562L414.957 200.678L420.305 179.214L425.245 178.756L417.638 208.02L413.671 208.388L400.818 181.019ZM398.154 181.266L403.074 180.81L405.846 200.992L406.592 209.044L400.777 209.582L398.154 181.266ZM422.989 178.965L427.929 178.508L430.552 206.824L424.717 207.365L423.972 199.313L422.989 178.965ZM439.248 177.459L441.871 205.776L436.056 206.314L433.433 177.998L439.248 177.459ZM467.758 174.818L470.381 203.135L464.547 203.675L451.412 185.748L453.17 204.729L447.335 205.269L444.712 176.953L450.547 176.413L463.703 194.358L461.943 175.357L467.758 174.818ZM484.911 173.229L487.534 201.546L481.719 202.084L479.096 173.768L484.911 173.229ZM493.624 172.422L494.047 176.993L470.943 179.133L470.52 174.563L493.624 172.422ZM512.022 170.718L514.645 199.034L508.83 199.573L506.207 171.257L512.022 170.718ZM534.165 189.753C534.118 189.247 533.998 188.801 533.806 188.413C533.624 188.012 533.317 187.661 532.884 187.361C532.45 187.048 531.854 186.757 531.097 186.487C530.339 186.217 529.367 185.954 528.18 185.698C526.858 185.402 525.596 185.048 524.394 184.636C523.205 184.223 522.137 183.714 521.192 183.109C520.259 182.489 519.496 181.742 518.906 180.869C518.328 179.994 517.982 178.947 517.869 177.728C517.76 176.548 517.92 175.455 518.35 174.447C518.778 173.427 519.428 172.53 520.297 171.756C521.166 170.97 522.218 170.329 523.454 169.836C524.703 169.341 526.092 169.023 527.622 168.881C529.71 168.687 531.566 168.895 533.191 169.503C534.817 170.11 536.118 171.03 537.095 172.26C538.085 173.489 538.658 174.946 538.814 176.632L533.019 177.168C532.942 176.339 532.7 175.629 532.292 175.039C531.896 174.435 531.331 173.984 530.597 173.685C529.877 173.386 528.991 173.285 527.941 173.382C526.93 173.476 526.101 173.71 525.456 174.083C524.809 174.444 524.342 174.899 524.053 175.449C523.762 175.986 523.647 176.572 523.705 177.207C523.75 177.687 523.907 178.111 524.176 178.478C524.459 178.844 524.855 179.173 525.366 179.466C525.877 179.759 526.496 180.022 527.224 180.255C527.952 180.488 528.789 180.705 529.736 180.905C531.322 181.229 532.726 181.628 533.947 182.104C535.181 182.578 536.227 183.141 537.085 183.794C537.943 184.447 538.616 185.215 539.103 186.098C539.59 186.982 539.888 188.007 539.996 189.174C540.11 190.405 539.972 191.53 539.582 192.547C539.193 193.563 538.575 194.451 537.73 195.209C536.885 195.967 535.85 196.58 534.625 197.046C533.4 197.513 532.009 197.818 530.453 197.962C529.053 198.092 527.655 198.039 526.26 197.802C524.864 197.552 523.574 197.102 522.389 196.454C521.217 195.804 520.247 194.926 519.478 193.82C518.708 192.715 518.25 191.365 518.102 189.77L523.956 189.228C524.038 190.109 524.243 190.842 524.571 191.426C524.9 192.01 525.328 192.468 525.856 192.798C526.396 193.127 527.018 193.344 527.721 193.449C528.436 193.553 529.209 193.566 530.039 193.489C531.05 193.396 531.867 193.176 532.489 192.831C533.123 192.484 533.573 192.044 533.837 191.509C534.115 190.974 534.224 190.388 534.165 189.753ZM572.353 189.099L572.775 193.65L558.52 194.97L558.098 190.419L572.353 189.099ZM557.783 166.479L560.406 194.796L554.572 195.336L551.949 167.02L557.783 166.479ZM579.701 164.449L582.324 192.765L576.509 193.304L573.886 164.988L579.701 164.449ZM597.451 185.401L602.047 162.379L608.542 161.777L601.305 191.007L597.027 191.403L597.451 185.401ZM589.23 163.566L597.957 185.354L599.516 191.173L595.198 191.573L582.774 164.164L589.23 163.566ZM632.389 183.538L632.811 188.089L617.739 189.485L617.317 184.934L632.389 183.538ZM617.022 160.992L619.645 189.308L613.81 189.849L611.187 161.532L617.022 160.992ZM629.292 171.487L629.703 175.921L616.595 177.135L616.184 172.701L629.292 171.487ZM630.168 159.774L630.592 164.344L615.539 165.739L615.116 161.168L630.168 159.774Z" fill="black"/>
<path d="M81.4931 210.503L86.4329 210.045L95.6323 230.162L100.98 208.698L105.92 208.24L98.3131 237.504L94.3457 237.872L81.4931 210.503ZM78.8288 210.75L83.7491 210.294L86.5209 230.476L87.2667 238.527L81.4517 239.066L78.8288 210.75ZM103.664 208.449L108.604 207.992L111.227 236.308L105.392 236.848L104.646 228.797L103.664 208.449ZM119.922 206.943L122.545 235.26L116.73 235.798L114.107 207.482L119.922 206.943ZM148.433 204.302L151.056 232.619L145.222 233.159L132.086 215.232L133.845 234.213L128.01 234.753L125.387 206.437L131.222 205.897L144.378 223.842L142.618 204.841L148.433 204.302ZM165.586 202.713L168.209 231.03L162.394 231.568L159.771 203.252L165.586 202.713ZM174.299 201.906L174.722 206.477L151.618 208.617L151.195 204.046L174.299 201.906ZM192.697 200.202L195.32 228.518L189.505 229.057L186.882 200.741L192.697 200.202ZM214.84 219.237C214.793 218.731 214.673 218.285 214.48 217.897C214.299 217.496 213.992 217.145 213.559 216.845C213.125 216.532 212.529 216.241 211.772 215.971C211.014 215.701 210.042 215.438 208.854 215.182C207.532 214.886 206.27 214.532 205.068 214.12C203.879 213.707 202.812 213.198 201.867 212.593C200.933 211.973 200.171 211.226 199.58 210.353C199.002 209.478 198.657 208.431 198.544 207.212C198.435 206.032 198.595 204.939 199.025 203.931C199.453 202.911 200.102 202.014 200.972 201.24C201.841 200.453 202.893 199.813 204.129 199.32C205.378 198.825 206.767 198.506 208.297 198.365C210.384 198.171 212.241 198.379 213.866 198.986C215.492 199.594 216.793 200.513 217.77 201.744C218.76 202.973 219.333 204.43 219.489 206.115L213.694 206.652C213.617 205.822 213.375 205.113 212.967 204.523C212.571 203.919 212.006 203.468 211.272 203.169C210.551 202.87 209.666 202.769 208.616 202.866C207.605 202.96 206.776 203.194 206.131 203.567C205.484 203.928 205.016 204.383 204.727 204.933C204.437 205.47 204.321 206.056 204.38 206.691C204.425 207.171 204.582 207.594 204.851 207.962C205.133 208.328 205.53 208.657 206.041 208.95C206.552 209.243 207.171 209.506 207.899 209.739C208.627 209.972 209.464 210.189 210.411 210.389C211.997 210.713 213.401 211.112 214.622 211.588C215.856 212.062 216.902 212.625 217.76 213.278C218.618 213.931 219.29 214.699 219.778 215.582C220.265 216.466 220.563 217.491 220.671 218.658C220.785 219.889 220.647 221.014 220.257 222.03C219.868 223.047 219.25 223.935 218.405 224.693C217.56 225.451 216.525 226.064 215.3 226.53C214.074 226.997 212.684 227.302 211.128 227.446C209.728 227.576 208.33 227.522 206.935 227.285C205.539 227.036 204.249 226.586 203.064 225.938C201.892 225.288 200.922 224.41 200.152 223.304C199.383 222.199 198.925 220.848 198.777 219.254L204.631 218.711C204.712 219.593 204.918 220.326 205.246 220.91C205.575 221.494 206.003 221.952 206.531 222.282C207.071 222.611 207.693 222.828 208.395 222.933C209.111 223.037 209.884 223.05 210.714 222.973C211.725 222.88 212.542 222.66 213.163 222.315C213.798 221.968 214.248 221.528 214.512 220.993C214.789 220.458 214.899 219.872 214.84 219.237ZM253.028 218.583L253.45 223.134L239.194 224.454L238.773 219.903L253.028 218.583ZM238.458 195.963L241.081 224.279L235.246 224.82L232.623 196.504L238.458 195.963ZM260.376 193.933L262.999 222.249L257.184 222.788L254.561 194.472L260.376 193.933ZM278.126 214.885L282.722 191.863L289.217 191.261L281.98 220.491L277.701 220.887L278.126 214.885ZM269.905 193.05L278.632 214.838L280.191 220.657L275.873 221.057L263.449 193.648L269.905 193.05ZM313.064 213.022L313.486 217.572L298.414 218.969L297.992 214.418L313.064 213.022ZM297.696 190.476L300.319 218.792L294.485 219.333L291.862 191.016L297.696 190.476ZM309.967 200.971L310.378 205.405L297.27 206.619L296.859 202.185L309.967 200.971ZM310.843 189.258L311.267 193.828L296.214 195.223L295.791 190.652L310.843 189.258Z" fill="black"/>
<path d="M717.951 150.843L722.891 150.385L732.09 170.501L737.438 149.038L742.378 148.58L734.771 177.844L730.804 178.211L717.951 150.843ZM715.287 151.089L720.207 150.634L722.979 170.816L723.725 178.867L717.91 179.406L715.287 151.089ZM740.122 148.789L745.062 148.331L747.685 176.648L741.85 177.188L741.104 169.137L740.122 148.789ZM756.38 147.283L759.003 175.599L753.188 176.138L750.565 147.822L756.38 147.283ZM784.891 144.642L787.514 172.958L781.68 173.499L768.544 155.571L770.303 174.552L764.468 175.093L761.845 146.777L767.68 146.236L780.836 164.181L779.076 145.181L784.891 144.642ZM802.044 143.053L804.667 171.369L798.852 171.908L796.229 143.592L802.044 143.053ZM810.757 142.246L811.18 146.816L788.076 148.956L787.653 144.386L810.757 142.246ZM829.155 140.542L831.778 168.858L825.963 169.397L823.34 141.08L829.155 140.542ZM851.298 159.577C851.251 159.071 851.131 158.624 850.938 158.237C850.757 157.835 850.45 157.484 850.017 157.184C849.583 156.872 848.987 156.58 848.23 156.31C847.472 156.041 846.5 155.778 845.312 155.521C843.99 155.225 842.728 154.872 841.526 154.46C840.337 154.047 839.27 153.538 838.325 152.932C837.391 152.313 836.629 151.566 836.038 150.692C835.46 149.817 835.115 148.771 835.002 147.552C834.893 146.372 835.053 145.278 835.483 144.271C835.911 143.25 836.56 142.353 837.43 141.58C838.299 140.793 839.351 140.153 840.587 139.659C841.836 139.164 843.225 138.846 844.755 138.704C846.842 138.511 848.699 138.718 850.324 139.326C851.95 139.934 853.251 140.853 854.228 142.083C855.218 143.312 855.791 144.77 855.947 146.455L850.152 146.992C850.075 146.162 849.833 145.452 849.425 144.862C849.029 144.258 848.464 143.807 847.73 143.509C847.009 143.21 846.124 143.109 845.074 143.206C844.063 143.299 843.234 143.533 842.589 143.907C841.942 144.267 841.474 144.723 841.185 145.273C840.895 145.809 840.779 146.395 840.838 147.031C840.883 147.51 841.04 147.934 841.309 148.301C841.591 148.667 841.988 148.997 842.499 149.29C843.01 149.582 843.629 149.845 844.357 150.079C845.085 150.312 845.922 150.529 846.869 150.729C848.455 151.052 849.859 151.452 851.08 151.927C852.314 152.401 853.36 152.965 854.218 153.618C855.076 154.271 855.748 155.039 856.236 155.922C856.723 156.805 857.021 157.83 857.129 158.997C857.243 160.229 857.105 161.353 856.715 162.37C856.326 163.387 855.708 164.274 854.863 165.033C854.018 165.791 852.983 166.403 851.758 166.87C850.532 167.336 849.142 167.642 847.586 167.786C846.186 167.916 844.788 167.862 843.393 167.625C841.997 167.375 840.707 166.926 839.522 166.277C838.35 165.627 837.38 164.75 836.61 163.644C835.841 162.538 835.383 161.188 835.235 159.593L841.089 159.051C841.17 159.933 841.376 160.666 841.704 161.25C842.033 161.834 842.461 162.291 842.989 162.622C843.529 162.951 844.151 163.168 844.853 163.273C845.569 163.376 846.342 163.39 847.172 163.313C848.183 163.219 849 163 849.621 162.654C850.256 162.308 850.706 161.867 850.97 161.333C851.247 160.797 851.357 160.212 851.298 159.577ZM889.486 158.922L889.908 163.473L875.652 164.794L875.231 160.243L889.486 158.922ZM874.916 136.303L877.539 164.619L871.704 165.159L869.081 136.843L874.916 136.303ZM896.834 134.272L899.457 162.589L893.642 163.127L891.019 134.811L896.834 134.272ZM914.584 155.225L919.18 132.203L925.675 131.601L918.438 160.831L914.159 161.227L914.584 155.225ZM906.363 133.39L915.09 155.178L916.649 160.996L912.331 161.396L899.907 133.988L906.363 133.39ZM949.522 153.361L949.944 157.912L934.872 159.308L934.45 154.757L949.522 153.361ZM934.154 130.815L936.777 159.132L930.943 159.672L928.32 131.356L934.154 130.815ZM946.425 141.31L946.836 145.745L933.728 146.959L933.317 142.525L946.425 141.31ZM947.301 129.598L947.725 134.168L932.672 135.562L932.249 130.992L947.301 129.598Z" fill="black"/>
<path d="M1038.36 121.499L1043.3 121.042L1052.5 141.158L1057.85 119.694L1062.79 119.236L1055.18 148.5L1051.22 148.868L1038.36 121.499ZM1035.7 121.746L1040.62 121.29L1043.39 141.472L1044.14 149.524L1038.32 150.062L1035.7 121.746ZM1060.53 119.445L1065.47 118.988L1068.1 147.304L1062.26 147.845L1061.52 139.793L1060.53 119.445ZM1076.79 117.939L1079.42 146.256L1073.6 146.794L1070.98 118.478L1076.79 117.939ZM1105.3 115.298L1107.93 143.615L1102.09 144.155L1088.96 126.228L1090.71 145.209L1084.88 145.749L1082.26 117.433L1088.09 116.893L1101.25 134.838L1099.49 115.837L1105.3 115.298ZM1122.46 113.709L1125.08 142.026L1119.26 142.564L1116.64 114.248L1122.46 113.709ZM1131.17 112.902L1131.59 117.473L1108.49 119.613L1108.06 115.043L1131.17 112.902ZM1149.57 111.198L1152.19 139.514L1146.37 140.053L1143.75 111.737L1149.57 111.198ZM1171.71 130.233C1171.66 129.727 1171.54 129.281 1171.35 128.893C1171.17 128.492 1170.86 128.141 1170.43 127.841C1169.99 127.528 1169.4 127.237 1168.64 126.967C1167.88 126.697 1166.91 126.434 1165.72 126.178C1164.4 125.882 1163.14 125.528 1161.94 125.116C1160.75 124.703 1159.68 124.194 1158.74 123.589C1157.8 122.969 1157.04 122.222 1156.45 121.349C1155.87 120.474 1155.53 119.427 1155.41 118.208C1155.3 117.028 1155.47 115.935 1155.89 114.927C1156.32 113.907 1156.97 113.01 1157.84 112.236C1158.71 111.45 1159.76 110.809 1161 110.316C1162.25 109.821 1163.64 109.503 1165.17 109.361C1167.25 109.167 1169.11 109.375 1170.74 109.983C1172.36 110.59 1173.66 111.51 1174.64 112.74C1175.63 113.969 1176.2 115.426 1176.36 117.112L1170.56 117.648C1170.49 116.819 1170.24 116.109 1169.84 115.519C1169.44 114.915 1168.88 114.464 1168.14 114.165C1167.42 113.866 1166.54 113.765 1165.49 113.862C1164.47 113.956 1163.65 114.19 1163 114.563C1162.35 114.924 1161.89 115.379 1161.6 115.929C1161.31 116.466 1161.19 117.052 1161.25 117.687C1161.29 118.167 1161.45 118.591 1161.72 118.958C1162 119.324 1162.4 119.653 1162.91 119.946C1163.42 120.239 1164.04 120.502 1164.77 120.735C1165.5 120.968 1166.33 121.185 1167.28 121.385C1168.87 121.709 1170.27 122.108 1171.49 122.584C1172.73 123.058 1173.77 123.621 1174.63 124.274C1175.49 124.927 1176.16 125.695 1176.65 126.578C1177.13 127.462 1177.43 128.487 1177.54 129.654C1177.65 130.885 1177.52 132.01 1177.13 133.026C1176.74 134.043 1176.12 134.931 1175.28 135.689C1174.43 136.447 1173.39 137.06 1172.17 137.526C1170.94 137.993 1169.55 138.298 1168 138.442C1166.6 138.572 1165.2 138.519 1163.81 138.282C1162.41 138.032 1161.12 137.582 1159.93 136.934C1158.76 136.284 1157.79 135.406 1157.02 134.3C1156.25 133.195 1155.79 131.845 1155.65 130.25L1161.5 129.708C1161.58 130.589 1161.79 131.322 1162.12 131.906C1162.45 132.49 1162.87 132.948 1163.4 133.278C1163.94 133.607 1164.56 133.824 1165.27 133.929C1165.98 134.033 1166.75 134.046 1167.58 133.969C1168.6 133.876 1169.41 133.656 1170.03 133.311C1170.67 132.964 1171.12 132.524 1171.38 131.989C1171.66 131.454 1171.77 130.868 1171.71 130.233ZM1209.9 129.579L1210.32 134.13L1196.06 135.45L1195.64 130.899L1209.9 129.579ZM1195.33 106.959L1197.95 135.276L1192.12 135.816L1189.49 107.5L1195.33 106.959ZM1217.25 104.929L1219.87 133.245L1214.05 133.784L1211.43 105.468L1217.25 104.929ZM1235 125.881L1239.59 102.859L1246.09 102.257L1238.85 131.487L1234.57 131.883L1235 125.881ZM1226.78 104.046L1235.5 125.834L1237.06 131.653L1232.74 132.053L1220.32 104.644L1226.78 104.046ZM1269.93 124.018L1270.36 128.569L1255.28 129.965L1254.86 125.414L1269.93 124.018ZM1254.57 101.472L1257.19 129.788L1251.36 130.329L1248.73 102.012L1254.57 101.472ZM1266.84 111.967L1267.25 116.401L1254.14 117.615L1253.73 113.181L1266.84 111.967ZM1267.71 100.254L1268.14 104.824L1253.08 106.219L1252.66 101.648L1267.71 100.254Z" fill="black"/>
<path d="M1361.69 91.4303L1366.63 90.9727L1375.83 111.089L1381.17 89.6252L1386.11 89.1676L1378.51 118.431L1374.54 118.799L1361.69 91.4303ZM1359.02 91.6771L1363.94 91.2213L1366.72 111.403L1367.46 119.455L1361.65 119.993L1359.02 91.6771ZM1383.86 89.3766L1388.8 88.919L1391.42 117.235L1385.59 117.776L1384.84 109.724L1383.86 89.3766ZM1400.12 87.8705L1402.74 116.187L1396.92 116.725L1394.3 88.4092L1400.12 87.8705ZM1428.63 85.2295L1431.25 113.546L1425.42 114.086L1412.28 96.1589L1414.04 115.14L1408.2 115.681L1405.58 87.3643L1411.42 86.8238L1424.57 104.769L1422.81 85.7682L1428.63 85.2295ZM1445.78 83.6406L1448.4 111.957L1442.59 112.496L1439.97 84.1793L1445.78 83.6406ZM1454.49 82.8335L1454.92 87.4038L1431.81 89.544L1431.39 84.9737L1454.49 82.8335ZM1472.89 81.1293L1475.51 109.446L1469.7 109.984L1467.08 81.668L1472.89 81.1293ZM1495.03 100.164C1494.99 99.6585 1494.87 99.2119 1494.67 98.8244C1494.49 98.4227 1494.19 98.072 1493.75 97.7721C1493.32 97.4593 1492.72 97.1679 1491.97 96.8981C1491.21 96.6283 1490.24 96.3653 1489.05 96.1091C1487.73 95.8131 1486.46 95.4593 1485.26 95.0475C1484.07 94.6346 1483.01 94.1254 1482.06 93.5199C1481.13 92.9003 1480.37 92.1536 1479.77 91.2799C1479.2 90.405 1478.85 89.3582 1478.74 88.1394C1478.63 86.9596 1478.79 85.8659 1479.22 84.8584C1479.65 83.838 1480.3 82.941 1481.17 82.1673C1482.04 81.3807 1483.09 80.7406 1484.32 80.2469C1485.57 79.752 1486.96 79.4337 1488.49 79.292C1490.58 79.0986 1492.44 79.3059 1494.06 79.9137C1495.69 80.5216 1496.99 81.4407 1497.96 82.6709C1498.95 83.8999 1499.53 85.3572 1499.68 87.0427L1493.89 87.5795C1493.81 86.7497 1493.57 86.0399 1493.16 85.45C1492.77 84.8459 1492.2 84.3948 1491.47 84.0966C1490.75 83.7972 1489.86 83.6962 1488.81 83.7935C1487.8 83.8871 1486.97 84.1208 1486.33 84.4944C1485.68 84.8551 1485.21 85.3103 1484.92 85.8601C1484.63 86.397 1484.52 86.9831 1484.57 87.6184C1484.62 88.0981 1484.78 88.5217 1485.05 88.889C1485.33 89.2551 1485.72 89.5845 1486.24 89.8772C1486.75 90.1699 1487.37 90.4329 1488.09 90.6662C1488.82 90.8996 1489.66 91.1162 1490.61 91.3162C1492.19 91.64 1493.6 92.0396 1494.82 92.515C1496.05 92.9891 1497.1 93.5526 1497.95 94.2054C1498.81 94.8582 1499.48 95.6262 1499.97 96.5095C1500.46 97.3929 1500.76 98.4179 1500.86 99.5848C1500.98 100.817 1500.84 101.941 1500.45 102.958C1500.06 103.974 1499.44 104.862 1498.6 105.62C1497.75 106.379 1496.72 106.991 1495.49 107.458C1494.27 107.924 1492.88 108.229 1491.32 108.374C1489.92 108.503 1488.52 108.45 1487.13 108.213C1485.73 107.963 1484.44 107.514 1483.26 106.865C1482.09 106.215 1481.12 105.337 1480.35 104.232C1479.58 103.126 1479.12 101.776 1478.97 100.181L1484.82 99.6387C1484.91 100.52 1485.11 101.253 1485.44 101.837C1485.77 102.422 1486.2 102.879 1486.72 103.209C1487.27 103.538 1487.89 103.755 1488.59 103.86C1489.31 103.964 1490.08 103.977 1490.91 103.901C1491.92 103.807 1492.74 103.587 1493.36 103.242C1493.99 102.896 1494.44 102.455 1494.71 101.921C1494.98 101.385 1495.09 100.799 1495.03 100.164ZM1533.22 99.5101L1533.64 104.061L1519.39 105.381L1518.97 100.831L1533.22 99.5101ZM1518.65 76.8904L1521.28 105.207L1515.44 105.747L1512.82 77.4309L1518.65 76.8904ZM1540.57 74.8601L1543.19 103.176L1537.38 103.715L1534.76 75.3988L1540.57 74.8601ZM1558.32 95.8122L1562.92 72.7902L1569.41 72.1885L1562.17 101.418L1557.9 101.814L1558.32 95.8122ZM1550.1 73.9774L1558.83 95.7654L1560.39 101.584L1556.07 101.984L1543.64 74.5755L1550.1 73.9774ZM1593.26 93.9489L1593.68 98.4997L1578.61 99.8959L1578.19 95.3451L1593.26 93.9489ZM1577.89 71.4031L1580.51 99.7194L1574.68 100.26L1572.06 71.9435L1577.89 71.4031ZM1590.16 81.8981L1590.57 86.3322L1577.46 87.5464L1577.05 83.1123L1590.16 81.8981ZM1591.04 70.1853L1591.46 74.7555L1576.41 76.1499L1575.98 71.5796L1591.04 70.1853Z" fill="black"/>
<path d="M1677.73 61.1134L1682.67 60.6558L1691.87 80.7719L1697.22 59.3083L1702.16 58.8507L1694.55 88.1145L1690.59 88.4821L1677.73 61.1134ZM1675.07 61.3602L1679.99 60.9044L1682.76 81.0863L1683.51 89.1378L1677.69 89.6764L1675.07 61.3602ZM1699.91 59.0597L1704.84 58.6021L1707.47 86.9184L1701.63 87.4588L1700.89 79.4073L1699.91 59.0597ZM1716.16 57.5536L1718.79 85.8699L1712.97 86.4085L1710.35 58.0923L1716.16 57.5536ZM1744.67 54.9126L1747.3 83.2289L1741.46 83.7694L1728.33 65.842L1730.09 84.8232L1724.25 85.3637L1721.63 57.0474L1727.46 56.5069L1740.62 74.452L1738.86 55.4513L1744.67 54.9126ZM1761.83 53.3237L1764.45 81.64L1758.64 82.1786L1756.01 53.8624L1761.83 53.3237ZM1770.54 52.5166L1770.96 57.0869L1747.86 59.2271L1747.44 54.6568L1770.54 52.5166ZM1788.94 50.8124L1791.56 79.1287L1785.75 79.6674L1783.12 51.3511L1788.94 50.8124ZM1811.08 69.8473C1811.03 69.3416 1810.91 68.895 1810.72 68.5075C1810.54 68.1059 1810.23 67.7551 1809.8 67.4552C1809.37 67.1424 1808.77 66.851 1808.01 66.5812C1807.26 66.3114 1806.28 66.0484 1805.1 65.7922C1803.77 65.4962 1802.51 65.1424 1801.31 64.7306C1800.12 64.3177 1799.05 63.8085 1798.11 63.203C1797.17 62.5834 1796.41 61.8367 1795.82 60.963C1795.24 60.0881 1794.9 59.0413 1794.79 57.8225C1794.68 56.6427 1794.84 55.549 1795.27 54.5415C1795.69 53.5211 1796.34 52.6241 1797.21 51.8504C1798.08 51.0638 1799.13 50.4237 1800.37 49.93C1801.62 49.4351 1803.01 49.1168 1804.54 48.9751C1806.63 48.7817 1808.48 48.989 1810.11 49.5968C1811.73 50.2047 1813.03 51.1238 1814.01 52.354C1815 53.583 1815.57 55.0403 1815.73 56.7258L1809.93 57.2626C1809.86 56.4328 1809.62 55.723 1809.21 55.1331C1808.81 54.529 1808.25 54.0779 1807.51 53.7797C1806.79 53.4803 1805.91 53.3793 1804.86 53.4766C1803.85 53.5702 1803.02 53.8039 1802.37 54.1775C1801.73 54.5382 1801.26 54.9934 1800.97 55.5433C1800.68 56.0801 1800.56 56.6662 1800.62 57.3015C1800.67 57.7812 1800.82 58.2048 1801.09 58.5721C1801.37 58.9382 1801.77 59.2676 1802.28 59.5603C1802.79 59.853 1803.41 60.116 1804.14 60.3493C1804.87 60.5827 1805.71 60.7993 1806.65 60.9993C1808.24 61.3231 1809.64 61.7227 1810.86 62.1981C1812.1 62.6722 1813.14 63.2357 1814 63.8885C1814.86 64.5413 1815.53 65.3093 1816.02 66.1927C1816.51 67.076 1816.8 68.1011 1816.91 69.2679C1817.03 70.4996 1816.89 71.6239 1816.5 72.6407C1816.11 73.6576 1815.49 74.5451 1814.65 75.3034C1813.8 76.0617 1812.77 76.6741 1811.54 77.1406C1810.32 77.6072 1808.93 77.9125 1807.37 78.0567C1805.97 78.1864 1804.57 78.1328 1803.18 77.8958C1801.78 77.6459 1800.49 77.1966 1799.31 76.5479C1798.13 75.898 1797.16 75.0203 1796.39 73.9146C1795.62 72.809 1795.17 71.4588 1795.02 69.8641L1800.87 69.3218C1800.95 70.2035 1801.16 70.9364 1801.49 71.5205C1801.82 72.1047 1802.24 72.5619 1802.77 72.8923C1803.31 73.2215 1803.93 73.4385 1804.64 73.5434C1805.35 73.6471 1806.13 73.6605 1806.95 73.5836C1807.97 73.4899 1808.78 73.2705 1809.4 72.9252C1810.04 72.5787 1810.49 72.1382 1810.75 71.6037C1811.03 71.0681 1811.14 70.4826 1811.08 69.8473ZM1849.27 69.1932L1849.69 73.7441L1835.44 75.0645L1835.01 70.5137L1849.27 69.1932ZM1834.7 46.5735L1837.32 74.8898L1831.49 75.4302L1828.86 47.114L1834.7 46.5735ZM1856.62 44.5432L1859.24 72.8595L1853.42 73.3982L1850.8 45.0819L1856.62 44.5432ZM1874.37 65.4953L1878.96 42.4733L1885.46 41.8716L1878.22 71.1013L1873.94 71.4976L1874.37 65.4953ZM1866.15 43.6605L1874.87 65.4485L1876.43 71.267L1872.11 71.6669L1859.69 44.2586L1866.15 43.6605ZM1909.31 63.632L1909.73 68.1828L1894.65 69.579L1894.23 65.0282L1909.31 63.632ZM1893.94 41.0862L1896.56 69.4025L1890.73 69.9429L1888.1 41.6266L1893.94 41.0862ZM1906.21 51.5812L1906.62 56.0153L1893.51 57.2295L1893.1 52.7954L1906.21 51.5812ZM1907.08 39.8684L1907.51 44.4387L1892.46 45.833L1892.03 41.2627L1907.08 39.8684Z" fill="black"/>
<path d="M1984.81 32.002L1989.75 31.5445L1998.95 51.6606L2004.29 30.1969L2009.23 29.7394L2001.63 59.0032L1997.66 59.3707L1984.81 32.002ZM1982.14 32.2488L1987.06 31.7931L1989.83 51.975L1990.58 60.0265L1984.77 60.5651L1982.14 32.2488ZM2006.98 29.9483L2011.92 29.4908L2014.54 57.807L2008.71 58.3475L2007.96 50.296L2006.98 29.9483ZM2023.24 28.4423L2025.86 56.7586L2020.04 57.2972L2017.42 28.9809L2023.24 28.4423ZM2051.75 25.8013L2054.37 54.1176L2048.54 54.658L2035.4 36.7307L2037.16 55.7119L2031.32 56.2523L2028.7 27.9361L2034.54 27.3956L2047.69 45.3406L2045.93 26.3399L2051.75 25.8013ZM2068.9 24.2124L2071.52 52.5287L2065.71 53.0673L2063.08 24.751L2068.9 24.2124ZM2077.61 23.4053L2078.04 27.9756L2054.93 30.1158L2054.51 25.5455L2077.61 23.4053ZM2096.01 21.7011L2098.63 50.0174L2092.82 50.556L2090.2 22.2398L2096.01 21.7011ZM2118.15 40.7359C2118.11 40.2303 2117.99 39.7837 2117.79 39.3962C2117.61 38.9945 2117.31 38.6438 2116.87 38.3439C2116.44 38.0311 2115.84 37.7397 2115.09 37.4699C2114.33 37.2 2113.36 36.937 2112.17 36.6809C2110.85 36.3849 2109.58 36.031 2108.38 35.6193C2107.19 35.2064 2106.13 34.6972 2105.18 34.0917C2104.25 33.472 2103.48 32.7253 2102.89 31.8516C2102.32 30.9767 2101.97 29.9299 2101.86 28.7112C2101.75 27.5313 2101.91 26.4377 2102.34 25.4302C2102.77 24.4098 2103.42 23.5127 2104.29 22.7391C2105.15 21.9525 2106.21 21.3124 2107.44 20.8187C2108.69 20.3238 2110.08 20.0055 2111.61 19.8637C2113.7 19.6704 2115.55 19.8776 2117.18 20.4855C2118.81 21.0934 2120.11 22.0124 2121.08 23.2427C2122.07 24.4717 2122.65 25.929 2122.8 27.6145L2117.01 28.1513C2116.93 27.3215 2116.69 26.6117 2116.28 26.0218C2115.88 25.4177 2115.32 24.9666 2114.59 24.6684C2113.86 24.369 2112.98 24.268 2111.93 24.3652C2110.92 24.4589 2110.09 24.6926 2109.44 25.0662C2108.8 25.4268 2108.33 25.8821 2108.04 26.4319C2107.75 26.9688 2107.63 27.5549 2107.69 28.1902C2107.74 28.6699 2107.9 29.0934 2108.16 29.4608C2108.45 29.8269 2108.84 30.1563 2109.35 30.449C2109.87 30.7416 2110.48 31.0046 2111.21 31.238C2111.94 31.4713 2112.78 31.688 2113.72 31.888C2115.31 32.2118 2116.71 32.6114 2117.94 33.0867C2119.17 33.5609 2120.22 34.1244 2121.07 34.7772C2121.93 35.43 2122.6 36.198 2123.09 37.0813C2123.58 37.9646 2123.88 38.9897 2123.98 40.1566C2124.1 41.3883 2123.96 42.5126 2123.57 43.5294C2123.18 44.5463 2122.56 45.4338 2121.72 46.1921C2120.87 46.9503 2119.84 47.5628 2118.61 48.0293C2117.39 48.4959 2116 48.8012 2114.44 48.9453C2113.04 49.075 2111.64 49.0214 2110.25 48.7845C2108.85 48.5346 2107.56 48.0853 2106.38 47.4366C2105.21 46.7867 2104.24 45.9089 2103.47 44.8033C2102.7 43.6977 2102.24 42.3475 2102.09 40.7528L2107.94 40.2105C2108.03 41.0922 2108.23 41.8251 2108.56 42.4092C2108.89 42.9934 2109.32 43.4506 2109.84 43.781C2110.38 44.1101 2111.01 44.3271 2111.71 44.432C2112.42 44.5357 2113.2 44.5492 2114.03 44.4723C2115.04 44.3786 2115.86 44.1591 2116.48 43.8138C2117.11 43.4674 2117.56 43.0269 2117.83 42.4924C2118.1 41.9567 2118.21 41.3712 2118.15 40.7359ZM2156.34 40.0819L2156.76 44.6327L2142.51 45.9532L2142.09 41.4024L2156.34 40.0819ZM2141.77 17.4622L2144.39 45.7785L2138.56 46.3189L2135.94 18.0026L2141.77 17.4622Z" fill="black"/>
</g>
<defs>
<clipPath id="clip0_153_236">
<rect width="2207.68" height="260.26" fill="white"/>
</clipPath>
</defs>
</svg>
