<svg width="2196" height="387" viewBox="0 0 2196 387" fill="none" xmlns="http://www.w3.org/2000/svg">
<g clip-path="url(#clip0_153_2)">
<path opacity="0.4" d="M9.73258 8.263L2193.27 340.441L2186.31 386.224L2.76758 54.046L9.73258 8.263Z" fill="#212121"/>
<path d="M9.23844 2.27502L2192.78 334.453L2185.81 380.236L2.27344 48.059L9.23844 2.27502Z" fill="#C4ED74"/>
<path d="M9.23844 2.27502L2192.78 334.453L2185.81 380.236L2.27344 48.059L9.23844 2.27502Z" stroke="#0C0C0C" stroke-width="4" stroke-miterlimit="10"/>
<path d="M714.81 138.29C716.842 138.29 718.49 136.642 718.49 134.61C718.49 132.578 716.842 130.93 714.81 130.93C712.777 130.93 711.13 132.578 711.13 134.61C711.13 136.642 712.777 138.29 714.81 138.29Z" fill="black"/>
<path d="M708.07 133.14L703.3 131.76C702.58 131.65 701.92 132.18 701.88 132.9C701.61 137.1 703.13 141.35 706.32 144.43C706.84 144.94 707.69 144.89 708.14 144.32L710.67 139.95C710.96 139.6 710.95 139.08 710.63 138.75C709.38 137.47 708.77 135.76 708.84 134.06C708.86 133.6 708.52 133.21 708.07 133.13V133.14Z" fill="black"/>
<path d="M719.34 129.51L722.86 126.01C722.966 125.875 723.043 125.718 723.085 125.552C723.127 125.385 723.134 125.211 723.105 125.041C723.075 124.871 723.011 124.71 722.915 124.567C722.82 124.423 722.695 124.302 722.55 124.21C719.01 121.94 714.56 121.21 710.31 122.5C709.61 122.71 709.25 123.47 709.52 124.15L712.11 128.48C712.28 128.9 712.74 129.15 713.18 129.03C714.91 128.56 716.7 128.86 718.15 129.74C718.54 129.98 719.05 129.87 719.34 129.51Z" fill="black"/>
<path d="M717.1 140.85L718.4 145.64C718.465 145.798 718.563 145.941 718.686 146.06C718.809 146.178 718.956 146.27 719.117 146.329C719.277 146.389 719.448 146.414 719.619 146.404C719.79 146.393 719.957 146.348 720.11 146.27C722.003 145.284 723.659 143.897 724.963 142.207C726.267 140.516 727.187 138.562 727.66 136.48C727.82 135.77 727.34 135.07 726.62 134.98L721.58 135.09C721.13 135.03 720.69 135.3 720.57 135.75C720.12 137.48 718.98 138.89 717.49 139.72C717.09 139.94 716.93 140.44 717.1 140.86V140.85Z" fill="black"/>
<path d="M397.96 90.4245C399.993 90.4245 401.64 88.7769 401.64 86.7445C401.64 84.7121 399.993 83.0645 397.96 83.0645C395.928 83.0645 394.28 84.7121 394.28 86.7445C394.28 88.7769 395.928 90.4245 397.96 90.4245Z" fill="black"/>
<path d="M391.221 85.2744L386.451 83.8944C385.731 83.7844 385.071 84.3144 385.031 85.0344C384.761 89.2344 386.281 93.4844 389.471 96.5644C389.991 97.0744 390.841 97.0244 391.291 96.4544L393.821 92.0844C394.111 91.7344 394.101 91.2144 393.781 90.8844C392.531 89.6044 391.921 87.8944 391.991 86.1944C392.011 85.7344 391.671 85.3444 391.221 85.2644V85.2744Z" fill="black"/>
<path d="M402.49 81.6444L406.01 78.1445C406.116 78.0091 406.193 77.8529 406.235 77.686C406.278 77.5191 406.284 77.3452 406.255 77.1755C406.226 77.0059 406.161 76.8442 406.066 76.7011C405.97 76.5579 405.845 76.4364 405.7 76.3444C402.16 74.0744 397.71 73.3444 393.46 74.6344C392.76 74.8444 392.4 75.6045 392.67 76.2845L395.26 80.6144C395.43 81.0344 395.89 81.2844 396.33 81.1644C398.06 80.6944 399.85 80.9945 401.3 81.8745C401.69 82.1145 402.2 82.0044 402.49 81.6444Z" fill="black"/>
<path d="M400.25 92.9845L401.55 97.7744C401.615 97.9326 401.713 98.0755 401.836 98.1942C401.96 98.3128 402.106 98.4046 402.267 98.4638C402.428 98.523 402.599 98.5483 402.77 98.5381C402.941 98.5278 403.107 98.4823 403.26 98.4044C405.153 97.4183 406.81 96.0317 408.113 94.3411C409.417 92.6505 410.337 90.6964 410.81 88.6144C410.97 87.9044 410.49 87.2044 409.77 87.1144L404.73 87.2244C404.28 87.1644 403.84 87.4344 403.72 87.8844C403.27 89.6144 402.13 91.0244 400.64 91.8544C400.24 92.0744 400.08 92.5744 400.25 92.9944V92.9845Z" fill="black"/>
<path d="M82.9603 42.4245C84.9927 42.4245 86.6403 40.7769 86.6403 38.7445C86.6403 36.7121 84.9927 35.0645 82.9603 35.0645C80.9279 35.0645 79.2803 36.7121 79.2803 38.7445C79.2803 40.7769 80.9279 42.4245 82.9603 42.4245Z" fill="black"/>
<path d="M76.2206 37.2744L71.4506 35.8944C70.7306 35.7844 70.0706 36.3144 70.0306 37.0344C69.7606 41.2344 71.2806 45.4844 74.4706 48.5644C74.9906 49.0744 75.8406 49.0244 76.2906 48.4544L78.8206 44.0844C79.1106 43.7344 79.1006 43.2144 78.7806 42.8844C77.5306 41.6044 76.9206 39.8944 76.9906 38.1944C77.0106 37.7344 76.6706 37.3444 76.2206 37.2644V37.2744Z" fill="black"/>
<path d="M87.49 33.6444L91.0099 30.1445C91.1163 30.0091 91.1932 29.8529 91.2354 29.686C91.2776 29.5191 91.2843 29.3452 91.2551 29.1755C91.2259 29.0059 91.1614 28.8442 91.0658 28.7011C90.9701 28.5579 90.8455 28.4364 90.6999 28.3444C87.1599 26.0744 82.7099 25.3444 78.4599 26.6344C77.7599 26.8444 77.4 27.6045 77.67 28.2845L80.2599 32.6144C80.4299 33.0344 80.8899 33.2844 81.3299 33.1644C83.0599 32.6944 84.85 32.9945 86.3 33.8745C86.69 34.1145 87.2 34.0044 87.49 33.6444Z" fill="black"/>
<path d="M85.2499 44.9845L86.55 49.7744C86.6154 49.9326 86.7129 50.0755 86.8363 50.1942C86.9598 50.3128 87.1064 50.4046 87.267 50.4638C87.4276 50.523 87.5988 50.5483 87.7697 50.5381C87.9406 50.5278 88.1075 50.4823 88.2599 50.4044C90.1534 49.4183 91.8096 48.0317 93.1134 46.3411C94.4172 44.6505 95.3373 42.6964 95.8099 40.6144C95.9699 39.9044 95.4899 39.2044 94.7699 39.1144L89.73 39.2244C89.28 39.1644 88.84 39.4344 88.72 39.8844C88.27 41.6144 87.1299 43.0244 85.6399 43.8544C85.2399 44.0744 85.0799 44.5744 85.2499 44.9944V44.9845Z" fill="black"/>
<path d="M1030.95 186.424C1032.98 186.424 1034.63 184.777 1034.63 182.744C1034.63 180.712 1032.98 179.064 1030.95 179.064C1028.92 179.064 1027.27 180.712 1027.27 182.744C1027.27 184.777 1028.92 186.424 1030.95 186.424Z" fill="black"/>
<path d="M1024.22 181.274L1019.45 179.894C1018.73 179.784 1018.07 180.314 1018.03 181.034C1017.76 185.234 1019.28 189.484 1022.47 192.564C1022.99 193.074 1023.84 193.024 1024.29 192.454L1026.82 188.084C1027.11 187.734 1027.1 187.214 1026.78 186.884C1025.53 185.604 1024.92 183.894 1024.99 182.194C1025.01 181.734 1024.67 181.344 1024.22 181.264V181.274Z" fill="black"/>
<path d="M1035.48 177.644L1039 174.144C1039.11 174.009 1039.18 173.853 1039.23 173.686C1039.27 173.519 1039.27 173.345 1039.25 173.176C1039.22 173.006 1039.15 172.844 1039.06 172.701C1038.96 172.558 1038.84 172.436 1038.69 172.344C1035.15 170.074 1030.7 169.344 1026.45 170.634C1025.75 170.844 1025.39 171.604 1025.66 172.284L1028.25 176.614C1028.42 177.034 1028.88 177.284 1029.32 177.164C1031.05 176.694 1032.84 176.994 1034.29 177.874C1034.68 178.114 1035.19 178.004 1035.48 177.644Z" fill="black"/>
<path d="M1033.25 188.984L1034.55 193.774C1034.62 193.933 1034.71 194.076 1034.84 194.194C1034.96 194.313 1035.11 194.405 1035.27 194.464C1035.43 194.523 1035.6 194.548 1035.77 194.538C1035.94 194.528 1036.11 194.482 1036.26 194.404C1038.15 193.418 1039.81 192.032 1041.11 190.341C1042.42 188.651 1043.34 186.696 1043.81 184.614C1043.97 183.904 1043.49 183.204 1042.77 183.114L1037.73 183.224C1037.28 183.164 1036.84 183.434 1036.72 183.884C1036.27 185.614 1035.13 187.024 1033.64 187.854C1033.24 188.074 1033.08 188.574 1033.25 188.994V188.984Z" fill="black"/>
<path d="M1349.95 235.424C1351.98 235.424 1353.63 233.777 1353.63 231.744C1353.63 229.712 1351.98 228.064 1349.95 228.064C1347.92 228.064 1346.27 229.712 1346.27 231.744C1346.27 233.777 1347.92 235.424 1349.95 235.424Z" fill="black"/>
<path d="M1343.22 230.274L1338.45 228.894C1337.73 228.784 1337.07 229.314 1337.03 230.034C1336.76 234.234 1338.28 238.484 1341.47 241.564C1341.99 242.074 1342.84 242.024 1343.29 241.454L1345.82 237.084C1346.11 236.734 1346.1 236.214 1345.78 235.884C1344.53 234.604 1343.92 232.894 1343.99 231.194C1344.01 230.734 1343.67 230.344 1343.22 230.264V230.274Z" fill="black"/>
<path d="M1354.48 226.644L1358 223.144C1358.11 223.009 1358.18 222.853 1358.23 222.686C1358.27 222.519 1358.27 222.345 1358.25 222.176C1358.22 222.006 1358.15 221.844 1358.06 221.701C1357.96 221.558 1357.84 221.436 1357.69 221.344C1354.15 219.074 1349.7 218.344 1345.45 219.634C1344.75 219.844 1344.39 220.604 1344.66 221.284L1347.25 225.614C1347.42 226.034 1347.88 226.284 1348.32 226.164C1350.05 225.694 1351.84 225.994 1353.29 226.874C1353.68 227.114 1354.19 227.004 1354.48 226.644Z" fill="black"/>
<path d="M1352.25 237.984L1353.55 242.774C1353.62 242.933 1353.71 243.076 1353.84 243.194C1353.96 243.313 1354.11 243.405 1354.27 243.464C1354.43 243.523 1354.6 243.548 1354.77 243.538C1354.94 243.528 1355.11 243.482 1355.26 243.404C1357.15 242.418 1358.81 241.032 1360.11 239.341C1361.42 237.651 1362.34 235.696 1362.81 233.614C1362.97 232.904 1362.49 232.204 1361.77 232.114L1356.73 232.224C1356.28 232.164 1355.84 232.434 1355.72 232.884C1355.27 234.614 1354.13 236.024 1352.64 236.854C1352.24 237.074 1352.08 237.574 1352.25 237.994V237.984Z" fill="black"/>
<path d="M1667.95 283.424C1669.98 283.424 1671.63 281.777 1671.63 279.744C1671.63 277.712 1669.98 276.064 1667.95 276.064C1665.92 276.064 1664.27 277.712 1664.27 279.744C1664.27 281.777 1665.92 283.424 1667.95 283.424Z" fill="black"/>
<path d="M1661.22 278.274L1656.45 276.894C1655.73 276.784 1655.07 277.314 1655.03 278.034C1654.76 282.234 1656.28 286.484 1659.47 289.564C1659.99 290.074 1660.84 290.024 1661.29 289.454L1663.82 285.084C1664.11 284.734 1664.1 284.214 1663.78 283.884C1662.53 282.604 1661.92 280.894 1661.99 279.194C1662.01 278.734 1661.67 278.344 1661.22 278.264V278.274Z" fill="black"/>
<path d="M1672.48 274.644L1676 271.144C1676.11 271.009 1676.18 270.853 1676.23 270.686C1676.27 270.519 1676.27 270.345 1676.25 270.176C1676.22 270.006 1676.15 269.844 1676.06 269.701C1675.96 269.558 1675.84 269.436 1675.69 269.344C1672.15 267.074 1667.7 266.344 1663.45 267.634C1662.75 267.844 1662.39 268.604 1662.66 269.284L1665.25 273.614C1665.42 274.034 1665.88 274.284 1666.32 274.164C1668.05 273.694 1669.84 273.994 1671.29 274.874C1671.68 275.114 1672.19 275.004 1672.48 274.644Z" fill="black"/>
<path d="M1670.25 285.984L1671.55 290.774C1671.62 290.933 1671.71 291.076 1671.84 291.194C1671.96 291.313 1672.11 291.405 1672.27 291.464C1672.43 291.523 1672.6 291.548 1672.77 291.538C1672.94 291.528 1673.11 291.482 1673.26 291.404C1675.15 290.418 1676.81 289.032 1678.11 287.341C1679.42 285.651 1680.34 283.696 1680.81 281.614C1680.97 280.904 1680.49 280.204 1679.77 280.114L1674.73 280.224C1674.28 280.164 1673.84 280.434 1673.72 280.884C1673.27 282.614 1672.13 284.024 1670.64 284.854C1670.24 285.074 1670.08 285.574 1670.25 285.994V285.984Z" fill="black"/>
<path d="M1980.95 330.424C1982.98 330.424 1984.63 328.777 1984.63 326.744C1984.63 324.712 1982.98 323.064 1980.95 323.064C1978.92 323.064 1977.27 324.712 1977.27 326.744C1977.27 328.777 1978.92 330.424 1980.95 330.424Z" fill="black"/>
<path d="M1974.22 325.274L1969.45 323.894C1968.73 323.784 1968.07 324.314 1968.03 325.034C1967.76 329.234 1969.28 333.484 1972.47 336.564C1972.99 337.074 1973.84 337.024 1974.29 336.454L1976.82 332.084C1977.11 331.734 1977.1 331.214 1976.78 330.884C1975.53 329.604 1974.92 327.894 1974.99 326.194C1975.01 325.734 1974.67 325.344 1974.22 325.264V325.274Z" fill="black"/>
<path d="M1985.48 321.644L1989 318.144C1989.11 318.009 1989.18 317.853 1989.23 317.686C1989.27 317.519 1989.27 317.345 1989.25 317.176C1989.22 317.006 1989.15 316.844 1989.06 316.701C1988.96 316.558 1988.84 316.436 1988.69 316.344C1985.15 314.074 1980.7 313.344 1976.45 314.634C1975.75 314.844 1975.39 315.604 1975.66 316.284L1978.25 320.614C1978.42 321.034 1978.88 321.284 1979.32 321.164C1981.05 320.694 1982.84 320.994 1984.29 321.874C1984.68 322.114 1985.19 322.004 1985.48 321.644Z" fill="black"/>
<path d="M1983.25 332.984L1984.55 337.774C1984.62 337.933 1984.71 338.076 1984.84 338.194C1984.96 338.313 1985.11 338.405 1985.27 338.464C1985.43 338.523 1985.6 338.548 1985.77 338.538C1985.94 338.528 1986.11 338.482 1986.26 338.404C1988.15 337.418 1989.81 336.032 1991.11 334.341C1992.42 332.651 1993.34 330.696 1993.81 328.614C1993.97 327.904 1993.49 327.204 1992.77 327.114L1987.73 327.224C1987.28 327.164 1986.84 327.434 1986.72 327.884C1986.27 329.614 1985.13 331.024 1983.64 331.854C1983.24 332.074 1983.08 332.574 1983.25 332.994V332.984Z" fill="black"/>
<path d="M446.95 78.854L451.853 79.6044L455.916 101.348L466.295 81.8142L471.199 82.5646L456.742 109.121L452.803 108.518L446.95 78.854ZM444.305 78.4492L449.189 79.1967L446.999 99.45L445.776 107.443L440.003 106.56L444.305 78.4492ZM468.959 82.2219L473.863 82.9723L469.561 111.083L463.769 110.196L464.992 102.203L468.959 82.2219ZM485.099 84.6917L480.798 112.802L475.025 111.919L479.327 83.8084L485.099 84.6917ZM513.403 89.0227L509.101 117.133L503.309 116.247L494.898 95.6753L492.015 114.518L486.223 113.632L490.524 85.5219L496.316 86.4082L504.744 107.002L507.63 88.1394L513.403 89.0227ZM530.431 91.6284L526.129 119.739L520.357 118.855L524.658 90.7451L530.431 91.6284ZM539.08 92.952L538.386 97.489L515.45 93.9793L516.144 89.4422L539.08 92.952ZM557.344 95.7467L553.043 123.857L547.27 122.974L551.572 94.8634L557.344 95.7467ZM574.228 119.571C574.305 119.069 574.296 118.607 574.203 118.184C574.124 117.75 573.911 117.336 573.563 116.94C573.218 116.531 572.71 116.105 572.04 115.66C571.371 115.215 570.491 114.724 569.4 114.189C568.189 113.582 567.05 112.933 565.983 112.243C564.93 111.555 564.017 110.803 563.246 109.987C562.49 109.16 561.931 108.251 561.569 107.26C561.22 106.272 561.138 105.173 561.323 103.963C561.502 102.791 561.922 101.769 562.583 100.895C563.245 100.009 564.092 99.2952 565.123 98.7549C566.156 98.2017 567.332 97.8349 568.651 97.6547C569.982 97.4764 571.407 97.5035 572.926 97.7359C574.998 98.053 576.749 98.703 578.18 99.6858C579.61 100.669 580.65 101.875 581.301 103.305C581.964 104.737 582.168 106.29 581.912 107.963L576.159 107.082C576.285 106.259 576.221 105.511 575.968 104.84C575.73 104.158 575.291 103.584 574.651 103.117C574.024 102.653 573.189 102.34 572.147 102.181C571.143 102.027 570.283 102.054 569.566 102.26C568.851 102.454 568.287 102.782 567.874 103.246C567.463 103.697 567.209 104.238 567.112 104.868C567.039 105.344 567.089 105.793 567.262 106.215C567.447 106.639 567.752 107.054 568.177 107.462C568.602 107.869 569.14 108.274 569.789 108.676C570.439 109.079 571.199 109.492 572.07 109.915C573.531 110.612 574.796 111.339 575.866 112.096C576.948 112.854 577.827 113.654 578.502 114.495C579.177 115.336 579.644 116.244 579.903 117.219C580.162 118.193 580.203 119.26 580.026 120.418C579.839 121.641 579.433 122.699 578.809 123.591C578.185 124.484 577.371 125.196 576.368 125.727C575.365 126.259 574.212 126.602 572.911 126.759C571.609 126.915 570.186 126.875 568.641 126.639C567.251 126.426 565.908 126.036 564.612 125.469C563.317 124.889 562.174 124.141 561.181 123.225C560.201 122.311 559.472 121.225 558.993 119.966C558.514 118.707 558.395 117.286 558.637 115.703L564.449 116.592C564.315 117.468 564.337 118.228 564.514 118.875C564.692 119.521 564.997 120.068 565.429 120.516C565.874 120.966 566.424 121.327 567.081 121.599C567.75 121.873 568.497 122.073 569.321 122.199C570.325 122.352 571.17 122.337 571.857 122.152C572.557 121.969 573.099 121.651 573.485 121.196C573.884 120.743 574.131 120.201 574.228 119.571ZM611.441 128.17L610.75 132.687L596.598 130.522L597.29 126.004L611.441 128.17ZM602.772 102.698L598.471 130.809L592.679 129.922L596.98 101.812L602.772 102.698ZM624.531 106.028L620.229 134.138L614.457 133.255L618.758 105.144L624.531 106.028ZM636.689 130.65L646.714 109.422L653.162 110.409L639.073 137.021L634.825 136.372L636.689 130.65ZM633.991 107.475L637.191 130.727L637.296 136.75L633.01 136.094L627.581 106.495L633.991 107.475ZM671.04 137.29L670.349 141.807L655.387 139.518L656.078 135L671.04 137.29ZM661.58 111.697L657.279 139.807L651.487 138.921L655.788 110.811L661.58 111.697ZM670.949 124.848L670.275 129.249L657.263 127.258L657.936 122.856L670.949 124.848ZM674.631 113.694L673.937 118.231L658.994 115.945L659.688 111.408L674.631 113.694Z" fill="black"/>
<path d="M129.969 30.2528L134.873 31.0032L138.935 52.7468L149.314 33.213L154.218 33.9634L139.761 60.5197L135.823 59.917L129.969 30.2528ZM127.324 29.848L132.209 30.5955L130.018 50.8488L128.795 58.8417L123.023 57.9583L127.324 29.848ZM151.978 33.6207L156.882 34.3711L152.581 62.4814L146.789 61.5951L148.012 53.6022L151.978 33.6207ZM168.119 36.0905L163.817 64.2008L158.045 63.3175L162.346 35.2072L168.119 36.0905ZM196.422 40.4215L192.121 68.5318L186.329 67.6455L177.918 47.0741L175.034 65.9173L169.242 65.031L173.544 36.9207L179.336 37.807L187.763 58.4007L190.649 39.5382L196.422 40.4215ZM213.45 43.0272L209.149 71.1375L203.376 70.2542L207.678 42.1439L213.45 43.0272ZM222.1 44.3508L221.406 48.8878L198.469 45.3781L199.164 40.841L222.1 44.3508ZM240.364 47.1455L236.062 75.2558L230.29 74.3725L234.591 46.2622L240.364 47.1455ZM257.247 70.9696C257.324 70.4676 257.316 70.0053 257.222 69.5827C257.144 69.1491 256.931 68.7345 256.583 68.3388C256.237 67.9302 255.729 67.5035 255.06 67.0585C254.39 66.6136 253.51 66.1233 252.42 65.5876C251.209 64.9808 250.07 64.3323 249.003 63.6421C247.949 62.954 247.037 62.2019 246.266 61.3858C245.51 60.5588 244.951 59.6499 244.589 58.6593C244.239 57.6706 244.157 56.5713 244.343 55.3614C244.522 54.1902 244.942 53.1677 245.602 52.294C246.265 51.4075 247.112 50.694 248.143 50.1537C249.176 49.6005 250.352 49.2337 251.67 49.0535C253.001 48.8752 254.426 48.9023 255.945 49.1347C258.018 49.4518 259.769 50.1018 261.199 51.0846C262.629 52.0675 263.67 53.2739 264.32 54.7039C264.984 56.1358 265.187 57.6884 264.931 59.3616L259.178 58.4812C259.304 57.6575 259.241 56.9101 258.988 56.2391C258.75 55.5572 258.311 54.9829 257.671 54.5162C257.044 54.0514 256.209 53.7392 255.166 53.5797C254.162 53.4261 253.302 53.4525 252.586 53.659C251.871 53.8526 251.307 54.1813 250.894 54.6449C250.482 55.0956 250.228 55.6364 250.132 56.267C250.059 56.7433 250.109 57.1922 250.281 57.6138C250.467 58.0373 250.772 58.4528 251.197 58.8604C251.622 59.2679 252.159 59.6728 252.809 60.0752C253.459 60.4776 254.219 60.8903 255.089 61.3133C256.55 62.011 257.815 62.7381 258.885 63.4946C259.968 64.253 260.846 65.0527 261.521 65.8936C262.196 66.7345 262.663 67.6424 262.922 68.6173C263.181 69.5922 263.222 70.6589 263.045 71.8173C262.858 73.04 262.453 74.0976 261.829 74.9901C261.205 75.8825 260.391 76.5945 259.388 77.1259C258.384 77.6573 257.232 78.0013 255.93 78.1577C254.628 78.3142 253.205 78.2743 251.661 78.0379C250.271 77.8252 248.928 77.4353 247.631 76.8681C246.337 76.288 245.193 75.54 244.201 74.6241C243.221 73.7102 242.491 72.6238 242.012 71.365C241.533 70.1061 241.415 68.6851 241.657 67.102L247.468 67.9913C247.334 68.8665 247.356 69.6273 247.534 70.2736C247.712 70.9198 248.016 71.467 248.448 71.9152C248.893 72.3652 249.444 72.7261 250.1 72.9978C250.77 73.2715 251.517 73.4714 252.34 73.5974C253.344 73.751 254.19 73.7355 254.876 73.5508C255.576 73.3681 256.119 73.0494 256.505 72.5947C256.903 72.142 257.151 71.6003 257.247 70.9696ZM294.461 79.5686L293.769 84.0863L279.618 81.9208L280.309 77.403L294.461 79.5686ZM285.792 54.097L281.491 82.2073L275.699 81.321L280 53.2107L285.792 54.097ZM307.55 57.4266L303.249 85.5368L297.476 84.6535L301.778 56.5432L307.55 57.4266ZM319.708 82.0488L329.734 60.8211L336.182 61.8078L322.092 88.4203L317.845 87.7703L319.708 82.0488ZM317.011 58.8742L320.21 82.1257L320.316 88.1485L316.03 87.4926L310.601 57.8933L317.011 58.8742ZM354.06 88.6885L353.369 93.2062L338.406 90.9167L339.097 86.3989L354.06 88.6885ZM344.6 63.0959L340.298 91.2062L334.506 90.3199L338.808 62.2096L344.6 63.0959ZM353.968 76.2463L353.295 80.6482L340.282 78.657L340.956 74.2551L353.968 76.2463ZM357.651 65.093L356.957 69.63L342.013 67.3434L342.708 62.8064L357.651 65.093Z" fill="black"/>
<path d="M761.969 126.253L766.873 127.003L770.935 148.747L781.314 129.213L786.218 129.963L771.761 156.52L767.823 155.917L761.969 126.253ZM759.324 125.848L764.209 126.595L762.018 146.849L760.795 154.842L755.023 153.958L759.324 125.848ZM783.978 129.621L788.882 130.371L784.581 158.481L778.789 157.595L780.012 149.602L783.978 129.621ZM800.119 132.091L795.817 160.201L790.045 159.317L794.346 131.207L800.119 132.091ZM828.422 136.422L824.121 164.532L818.329 163.646L809.918 143.074L807.034 161.917L801.242 161.031L805.544 132.921L811.336 133.807L819.763 154.401L822.649 135.538L828.422 136.422ZM845.45 139.027L841.149 167.138L835.376 166.254L839.678 138.144L845.45 139.027ZM854.1 140.351L853.406 144.888L830.469 141.378L831.164 136.841L854.1 140.351ZM872.364 143.146L868.062 171.256L862.29 170.372L866.591 142.262L872.364 143.146ZM889.247 166.97C889.324 166.468 889.316 166.005 889.222 165.583C889.144 165.149 888.931 164.735 888.583 164.339C888.237 163.93 887.729 163.503 887.06 163.059C886.39 162.614 885.51 162.123 884.42 161.588C883.209 160.981 882.07 160.332 881.003 159.642C879.949 158.954 879.037 158.202 878.266 157.386C877.51 156.559 876.951 155.65 876.589 154.659C876.239 153.671 876.157 152.571 876.343 151.361C876.522 150.19 876.942 149.168 877.602 148.294C878.265 147.407 879.112 146.694 880.143 146.154C881.176 145.6 882.352 145.234 883.67 145.053C885.001 144.875 886.426 144.902 887.945 145.135C890.018 145.452 891.769 146.102 893.199 147.085C894.629 148.067 895.67 149.274 896.32 150.704C896.984 152.136 897.187 153.688 896.931 155.362L891.178 154.481C891.304 153.657 891.241 152.91 890.988 152.239C890.75 151.557 890.311 150.983 889.671 150.516C889.044 150.051 888.209 149.739 887.166 149.58C886.162 149.426 885.302 149.453 884.586 149.659C883.871 149.853 883.307 150.181 882.894 150.645C882.482 151.096 882.228 151.636 882.132 152.267C882.059 152.743 882.109 153.192 882.281 153.614C882.467 154.037 882.772 154.453 883.197 154.86C883.622 155.268 884.159 155.673 884.809 156.075C885.459 156.478 886.219 156.89 887.089 157.313C888.55 158.011 889.815 158.738 890.885 159.495C891.968 160.253 892.846 161.053 893.521 161.894C894.196 162.735 894.663 163.642 894.922 164.617C895.181 165.592 895.222 166.659 895.045 167.817C894.858 169.04 894.453 170.098 893.829 170.99C893.205 171.883 892.391 172.594 891.388 173.126C890.384 173.657 889.232 174.001 887.93 174.158C886.628 174.314 885.205 174.274 883.661 174.038C882.271 173.825 880.928 173.435 879.631 172.868C878.337 172.288 877.193 171.54 876.201 170.624C875.221 169.71 874.491 168.624 874.012 167.365C873.533 166.106 873.415 164.685 873.657 163.102L879.468 163.991C879.334 164.866 879.356 165.627 879.534 166.274C879.712 166.92 880.016 167.467 880.448 167.915C880.893 168.365 881.444 168.726 882.1 168.998C882.77 169.272 883.517 169.471 884.34 169.597C885.344 169.751 886.19 169.736 886.876 169.551C887.576 169.368 888.119 169.049 888.505 168.595C888.903 168.142 889.151 167.6 889.247 166.97ZM926.461 175.569L925.769 180.086L911.618 177.921L912.309 173.403L926.461 175.569ZM917.792 150.097L913.491 178.207L907.699 177.321L912 149.211L917.792 150.097ZM939.55 153.427L935.249 181.537L929.476 180.654L933.778 152.543L939.55 153.427ZM951.708 178.049L961.734 156.821L968.182 157.808L954.092 184.42L949.845 183.77L951.708 178.049ZM949.011 154.874L952.21 178.126L952.316 184.148L948.03 183.493L942.601 153.893L949.011 154.874ZM986.06 184.689L985.369 189.206L970.406 186.917L971.097 182.399L986.06 184.689ZM976.6 159.096L972.298 187.206L966.506 186.32L970.808 158.21L976.6 159.096ZM985.968 172.246L985.295 176.648L972.282 174.657L972.956 170.255L985.968 172.246ZM989.651 161.093L988.957 165.63L974.013 163.343L974.708 158.806L989.651 161.093Z" fill="black"/>
<path d="M1079.97 175.253L1084.87 176.003L1088.94 197.747L1099.31 178.213L1104.22 178.963L1089.76 205.52L1085.82 204.917L1079.97 175.253ZM1077.32 174.848L1082.21 175.595L1080.02 195.849L1078.8 203.842L1073.02 202.958L1077.32 174.848ZM1101.98 178.621L1106.88 179.371L1102.58 207.481L1096.79 206.595L1098.01 198.602L1101.98 178.621ZM1118.12 181.091L1113.82 209.201L1108.04 208.317L1112.35 180.207L1118.12 181.091ZM1146.42 185.422L1142.12 213.532L1136.33 212.646L1127.92 192.074L1125.03 210.917L1119.24 210.031L1123.54 181.921L1129.34 182.807L1137.76 203.401L1140.65 184.538L1146.42 185.422ZM1163.45 188.027L1159.15 216.138L1153.38 215.254L1157.68 187.144L1163.45 188.027ZM1172.1 189.351L1171.41 193.888L1148.47 190.378L1149.16 185.841L1172.1 189.351ZM1190.36 192.146L1186.06 220.256L1180.29 219.372L1184.59 191.262L1190.36 192.146ZM1207.25 215.97C1207.32 215.468 1207.32 215.005 1207.22 214.583C1207.14 214.149 1206.93 213.735 1206.58 213.339C1206.24 212.93 1205.73 212.503 1205.06 212.059C1204.39 211.614 1203.51 211.123 1202.42 210.588C1201.21 209.981 1200.07 209.332 1199 208.642C1197.95 207.954 1197.04 207.202 1196.27 206.386C1195.51 205.559 1194.95 204.65 1194.59 203.659C1194.24 202.671 1194.16 201.571 1194.34 200.361C1194.52 199.19 1194.94 198.168 1195.6 197.294C1196.26 196.407 1197.11 195.694 1198.14 195.154C1199.18 194.6 1200.35 194.234 1201.67 194.053C1203 193.875 1204.43 193.902 1205.95 194.135C1208.02 194.452 1209.77 195.102 1211.2 196.085C1212.63 197.067 1213.67 198.274 1214.32 199.704C1214.98 201.136 1215.19 202.688 1214.93 204.362L1209.18 203.481C1209.3 202.657 1209.24 201.91 1208.99 201.239C1208.75 200.557 1208.31 199.983 1207.67 199.516C1207.04 199.051 1206.21 198.739 1205.17 198.58C1204.16 198.426 1203.3 198.453 1202.59 198.659C1201.87 198.853 1201.31 199.181 1200.89 199.645C1200.48 200.096 1200.23 200.636 1200.13 201.267C1200.06 201.743 1200.11 202.192 1200.28 202.614C1200.47 203.037 1200.77 203.453 1201.2 203.86C1201.62 204.268 1202.16 204.673 1202.81 205.075C1203.46 205.478 1204.22 205.89 1205.09 206.313C1206.55 207.011 1207.82 207.738 1208.89 208.495C1209.97 209.253 1210.85 210.053 1211.52 210.894C1212.2 211.735 1212.66 212.642 1212.92 213.617C1213.18 214.592 1213.22 215.659 1213.05 216.817C1212.86 218.04 1212.45 219.098 1211.83 219.99C1211.2 220.883 1210.39 221.594 1209.39 222.126C1208.38 222.657 1207.23 223.001 1205.93 223.158C1204.63 223.314 1203.21 223.274 1201.66 223.038C1200.27 222.825 1198.93 222.435 1197.63 221.868C1196.34 221.288 1195.19 220.54 1194.2 219.624C1193.22 218.71 1192.49 217.624 1192.01 216.365C1191.53 215.106 1191.41 213.685 1191.66 212.102L1197.47 212.991C1197.33 213.866 1197.36 214.627 1197.53 215.274C1197.71 215.92 1198.02 216.467 1198.45 216.915C1198.89 217.365 1199.44 217.726 1200.1 217.998C1200.77 218.272 1201.52 218.471 1202.34 218.597C1203.34 218.751 1204.19 218.736 1204.88 218.551C1205.58 218.368 1206.12 218.049 1206.5 217.595C1206.9 217.142 1207.15 216.6 1207.25 215.97ZM1244.46 224.569L1243.77 229.086L1229.62 226.921L1230.31 222.403L1244.46 224.569ZM1235.79 199.097L1231.49 227.207L1225.7 226.321L1230 198.211L1235.79 199.097ZM1257.55 202.427L1253.25 230.537L1247.48 229.654L1251.78 201.543L1257.55 202.427ZM1269.71 227.049L1279.73 205.821L1286.18 206.808L1272.09 233.42L1267.84 232.77L1269.71 227.049ZM1267.01 203.874L1270.21 227.126L1270.32 233.148L1266.03 232.493L1260.6 202.893L1267.01 203.874ZM1304.06 233.689L1303.37 238.206L1288.41 235.917L1289.1 231.399L1304.06 233.689ZM1294.6 208.096L1290.3 236.206L1284.51 235.32L1288.81 207.21L1294.6 208.096ZM1303.97 221.246L1303.29 225.648L1290.28 223.657L1290.96 219.255L1303.97 221.246ZM1307.65 210.093L1306.96 214.63L1292.01 212.343L1292.71 207.806L1307.65 210.093Z" fill="black"/>
<path d="M1400.97 224.253L1405.87 225.003L1409.94 246.747L1420.31 227.213L1425.22 227.963L1410.76 254.52L1406.82 253.917L1400.97 224.253ZM1398.32 223.848L1403.21 224.595L1401.02 244.849L1399.8 252.842L1394.02 251.958L1398.32 223.848ZM1422.98 227.621L1427.88 228.371L1423.58 256.481L1417.79 255.595L1419.01 247.602L1422.98 227.621ZM1439.12 230.091L1434.82 258.201L1429.04 257.317L1433.35 229.207L1439.12 230.091ZM1467.42 234.422L1463.12 262.532L1457.33 261.646L1448.92 241.074L1446.03 259.917L1440.24 259.031L1444.54 230.921L1450.34 231.807L1458.76 252.401L1461.65 233.538L1467.42 234.422ZM1484.45 237.027L1480.15 265.138L1474.38 264.254L1478.68 236.144L1484.45 237.027ZM1493.1 238.351L1492.41 242.888L1469.47 239.378L1470.16 234.841L1493.1 238.351ZM1511.36 241.146L1507.06 269.256L1501.29 268.372L1505.59 240.262L1511.36 241.146ZM1528.25 264.97C1528.32 264.468 1528.32 264.005 1528.22 263.583C1528.14 263.149 1527.93 262.735 1527.58 262.339C1527.24 261.93 1526.73 261.503 1526.06 261.059C1525.39 260.614 1524.51 260.123 1523.42 259.588C1522.21 258.981 1521.07 258.332 1520 257.642C1518.95 256.954 1518.04 256.202 1517.27 255.386C1516.51 254.559 1515.95 253.65 1515.59 252.659C1515.24 251.671 1515.16 250.571 1515.34 249.361C1515.52 248.19 1515.94 247.168 1516.6 246.294C1517.26 245.407 1518.11 244.694 1519.14 244.154C1520.18 243.6 1521.35 243.234 1522.67 243.053C1524 242.875 1525.43 242.902 1526.95 243.135C1529.02 243.452 1530.77 244.102 1532.2 245.085C1533.63 246.067 1534.67 247.274 1535.32 248.704C1535.98 250.136 1536.19 251.688 1535.93 253.362L1530.18 252.481C1530.3 251.657 1530.24 250.91 1529.99 250.239C1529.75 249.557 1529.31 248.983 1528.67 248.516C1528.04 248.051 1527.21 247.739 1526.17 247.58C1525.16 247.426 1524.3 247.453 1523.59 247.659C1522.87 247.853 1522.31 248.181 1521.89 248.645C1521.48 249.096 1521.23 249.636 1521.13 250.267C1521.06 250.743 1521.11 251.192 1521.28 251.614C1521.47 252.037 1521.77 252.453 1522.2 252.86C1522.62 253.268 1523.16 253.673 1523.81 254.075C1524.46 254.478 1525.22 254.89 1526.09 255.313C1527.55 256.011 1528.82 256.738 1529.89 257.495C1530.97 258.253 1531.85 259.053 1532.52 259.894C1533.2 260.735 1533.66 261.642 1533.92 262.617C1534.18 263.592 1534.22 264.659 1534.05 265.817C1533.86 267.04 1533.45 268.098 1532.83 268.99C1532.2 269.883 1531.39 270.594 1530.39 271.126C1529.38 271.657 1528.23 272.001 1526.93 272.158C1525.63 272.314 1524.21 272.274 1522.66 272.038C1521.27 271.825 1519.93 271.435 1518.63 270.868C1517.34 270.288 1516.19 269.54 1515.2 268.624C1514.22 267.71 1513.49 266.624 1513.01 265.365C1512.53 264.106 1512.41 262.685 1512.66 261.102L1518.47 261.991C1518.33 262.866 1518.36 263.627 1518.53 264.274C1518.71 264.92 1519.02 265.467 1519.45 265.915C1519.89 266.365 1520.44 266.726 1521.1 266.998C1521.77 267.272 1522.52 267.471 1523.34 267.597C1524.34 267.751 1525.19 267.736 1525.88 267.551C1526.58 267.368 1527.12 267.049 1527.5 266.595C1527.9 266.142 1528.15 265.6 1528.25 264.97ZM1565.46 273.569L1564.77 278.086L1550.62 275.921L1551.31 271.403L1565.46 273.569ZM1556.79 248.097L1552.49 276.207L1546.7 275.321L1551 247.211L1556.79 248.097ZM1578.55 251.427L1574.25 279.537L1568.48 278.654L1572.78 250.543L1578.55 251.427ZM1590.71 276.049L1600.73 254.821L1607.18 255.808L1593.09 282.42L1588.84 281.77L1590.71 276.049ZM1588.01 252.874L1591.21 276.126L1591.32 282.148L1587.03 281.493L1581.6 251.893L1588.01 252.874ZM1625.06 282.689L1624.37 287.206L1609.41 284.917L1610.1 280.399L1625.06 282.689ZM1615.6 257.096L1611.3 285.206L1605.51 284.32L1609.81 256.21L1615.6 257.096ZM1624.97 270.246L1624.29 274.648L1611.28 272.657L1611.96 268.255L1624.97 270.246ZM1628.65 259.093L1627.96 263.63L1613.01 261.343L1613.71 256.806L1628.65 259.093Z" fill="black"/>
<path d="M1714.97 271.253L1719.87 272.003L1723.94 293.747L1734.31 274.213L1739.22 274.963L1724.76 301.52L1720.82 300.917L1714.97 271.253ZM1712.32 270.848L1717.21 271.595L1715.02 291.849L1713.8 299.842L1708.02 298.958L1712.32 270.848ZM1736.98 274.621L1741.88 275.371L1737.58 303.481L1731.79 302.595L1733.01 294.602L1736.98 274.621ZM1753.12 277.091L1748.82 305.201L1743.04 304.317L1747.35 276.207L1753.12 277.091ZM1781.42 281.422L1777.12 309.532L1771.33 308.646L1762.92 288.074L1760.03 306.917L1754.24 306.031L1758.54 277.921L1764.34 278.807L1772.76 299.401L1775.65 280.538L1781.42 281.422ZM1798.45 284.027L1794.15 312.138L1788.38 311.254L1792.68 283.144L1798.45 284.027ZM1807.1 285.351L1806.41 289.888L1783.47 286.378L1784.16 281.841L1807.1 285.351ZM1825.36 288.146L1821.06 316.256L1815.29 315.372L1819.59 287.262L1825.36 288.146ZM1842.25 311.97C1842.32 311.468 1842.32 311.005 1842.22 310.583C1842.14 310.149 1841.93 309.735 1841.58 309.339C1841.24 308.93 1840.73 308.503 1840.06 308.059C1839.39 307.614 1838.51 307.123 1837.42 306.588C1836.21 305.981 1835.07 305.332 1834 304.642C1832.95 303.954 1832.04 303.202 1831.27 302.386C1830.51 301.559 1829.95 300.65 1829.59 299.659C1829.24 298.671 1829.16 297.571 1829.34 296.361C1829.52 295.19 1829.94 294.168 1830.6 293.294C1831.26 292.407 1832.11 291.694 1833.14 291.154C1834.18 290.6 1835.35 290.234 1836.67 290.053C1838 289.875 1839.43 289.902 1840.95 290.135C1843.02 290.452 1844.77 291.102 1846.2 292.085C1847.63 293.067 1848.67 294.274 1849.32 295.704C1849.98 297.136 1850.19 298.688 1849.93 300.362L1844.18 299.481C1844.3 298.657 1844.24 297.91 1843.99 297.239C1843.75 296.557 1843.31 295.983 1842.67 295.516C1842.04 295.051 1841.21 294.739 1840.17 294.58C1839.16 294.426 1838.3 294.453 1837.59 294.659C1836.87 294.853 1836.31 295.181 1835.89 295.645C1835.48 296.096 1835.23 296.636 1835.13 297.267C1835.06 297.743 1835.11 298.192 1835.28 298.614C1835.47 299.037 1835.77 299.453 1836.2 299.86C1836.62 300.268 1837.16 300.673 1837.81 301.075C1838.46 301.478 1839.22 301.89 1840.09 302.313C1841.55 303.011 1842.82 303.738 1843.89 304.495C1844.97 305.253 1845.85 306.053 1846.52 306.894C1847.2 307.735 1847.66 308.642 1847.92 309.617C1848.18 310.592 1848.22 311.659 1848.05 312.817C1847.86 314.04 1847.45 315.098 1846.83 315.99C1846.2 316.883 1845.39 317.594 1844.39 318.126C1843.38 318.657 1842.23 319.001 1840.93 319.158C1839.63 319.314 1838.21 319.274 1836.66 319.038C1835.27 318.825 1833.93 318.435 1832.63 317.868C1831.34 317.288 1830.19 316.54 1829.2 315.624C1828.22 314.71 1827.49 313.624 1827.01 312.365C1826.53 311.106 1826.41 309.685 1826.66 308.102L1832.47 308.991C1832.33 309.866 1832.36 310.627 1832.53 311.274C1832.71 311.92 1833.02 312.467 1833.45 312.915C1833.89 313.365 1834.44 313.726 1835.1 313.998C1835.77 314.272 1836.52 314.471 1837.34 314.597C1838.34 314.751 1839.19 314.736 1839.88 314.551C1840.58 314.368 1841.12 314.049 1841.5 313.595C1841.9 313.142 1842.15 312.6 1842.25 311.97ZM1879.46 320.569L1878.77 325.086L1864.62 322.921L1865.31 318.403L1879.46 320.569ZM1870.79 295.097L1866.49 323.207L1860.7 322.321L1865 294.211L1870.79 295.097ZM1892.55 298.427L1888.25 326.537L1882.48 325.654L1886.78 297.543L1892.55 298.427ZM1904.71 323.049L1914.73 301.821L1921.18 302.808L1907.09 329.42L1902.84 328.77L1904.71 323.049ZM1902.01 299.874L1905.21 323.126L1905.32 329.148L1901.03 328.493L1895.6 298.893L1902.01 299.874ZM1939.06 329.689L1938.37 334.206L1923.41 331.917L1924.1 327.399L1939.06 329.689ZM1929.6 304.096L1925.3 332.206L1919.51 331.32L1923.81 303.21L1929.6 304.096ZM1938.97 317.246L1938.29 321.648L1925.28 319.657L1925.96 315.255L1938.97 317.246ZM1942.65 306.093L1941.96 310.63L1927.01 308.343L1927.71 303.806L1942.65 306.093Z" fill="black"/>
<path d="M2019.97 317.253L2024.87 318.003L2028.94 339.747L2039.31 320.213L2044.22 320.963L2029.76 347.52L2025.82 346.917L2019.97 317.253ZM2017.32 316.848L2022.21 317.595L2020.02 337.849L2018.8 345.842L2013.02 344.958L2017.32 316.848ZM2041.98 320.621L2046.88 321.371L2042.58 349.481L2036.79 348.595L2038.01 340.602L2041.98 320.621ZM2058.12 323.091L2053.82 351.201L2048.04 350.317L2052.35 322.207L2058.12 323.091ZM2086.42 327.422L2082.12 355.532L2076.33 354.646L2067.92 334.074L2065.03 352.917L2059.24 352.031L2063.54 323.921L2069.34 324.807L2077.76 345.401L2080.65 326.538L2086.42 327.422ZM2103.45 330.027L2099.15 358.138L2093.38 357.254L2097.68 329.144L2103.45 330.027ZM2112.1 331.351L2111.41 335.888L2088.47 332.378L2089.16 327.841L2112.1 331.351ZM2130.36 334.146L2126.06 362.256L2120.29 361.372L2124.59 333.262L2130.36 334.146ZM2147.25 357.97C2147.32 357.468 2147.32 357.005 2147.22 356.583C2147.14 356.149 2146.93 355.735 2146.58 355.339C2146.24 354.93 2145.73 354.503 2145.06 354.059C2144.39 353.614 2143.51 353.123 2142.42 352.588C2141.21 351.981 2140.07 351.332 2139 350.642C2137.95 349.954 2137.04 349.202 2136.27 348.386C2135.51 347.559 2134.95 346.65 2134.59 345.659C2134.24 344.671 2134.16 343.571 2134.34 342.361C2134.52 341.19 2134.94 340.168 2135.6 339.294C2136.26 338.407 2137.11 337.694 2138.14 337.154C2139.18 336.6 2140.35 336.234 2141.67 336.053C2143 335.875 2144.43 335.902 2145.95 336.135C2148.02 336.452 2149.77 337.102 2151.2 338.085C2152.63 339.067 2153.67 340.274 2154.32 341.704C2154.98 343.136 2155.19 344.688 2154.93 346.362L2149.18 345.481C2149.3 344.657 2149.24 343.91 2148.99 343.239C2148.75 342.557 2148.31 341.983 2147.67 341.516C2147.04 341.051 2146.21 340.739 2145.17 340.58C2144.16 340.426 2143.3 340.453 2142.59 340.659C2141.87 340.853 2141.31 341.181 2140.89 341.645C2140.48 342.096 2140.23 342.636 2140.13 343.267C2140.06 343.743 2140.11 344.192 2140.28 344.614C2140.47 345.037 2140.77 345.453 2141.2 345.86C2141.62 346.268 2142.16 346.673 2142.81 347.075C2143.46 347.478 2144.22 347.89 2145.09 348.313C2146.55 349.011 2147.82 349.738 2148.89 350.495C2149.97 351.253 2150.85 352.053 2151.52 352.894C2152.2 353.735 2152.66 354.642 2152.92 355.617C2153.18 356.592 2153.22 357.659 2153.05 358.817C2152.86 360.04 2152.45 361.098 2151.83 361.99C2151.2 362.883 2150.39 363.594 2149.39 364.126C2148.38 364.657 2147.23 365.001 2145.93 365.158C2144.63 365.314 2143.21 365.274 2141.66 365.038C2140.27 364.825 2138.93 364.435 2137.63 363.868C2136.34 363.288 2135.19 362.54 2134.2 361.624C2133.22 360.71 2132.49 359.624 2132.01 358.365C2131.53 357.106 2131.41 355.685 2131.66 354.102L2137.47 354.991C2137.33 355.866 2137.36 356.627 2137.53 357.274C2137.71 357.92 2138.02 358.467 2138.45 358.915C2138.89 359.365 2139.44 359.726 2140.1 359.998C2140.77 360.272 2141.52 360.471 2142.34 360.597C2143.34 360.751 2144.19 360.736 2144.88 360.551C2145.58 360.368 2146.12 360.049 2146.5 359.595C2146.9 359.142 2147.15 358.6 2147.25 357.97ZM2184.46 366.569L2183.77 371.086L2169.62 368.921L2170.31 364.403L2184.46 366.569ZM2175.79 341.097L2171.49 369.207L2165.7 368.321L2170 340.211L2175.79 341.097Z" fill="black"/>
</g>
<defs>
<clipPath id="clip0_153_2">
<rect width="2195.06" height="386.17" fill="white"/>
</clipPath>
</defs>
</svg>
