<svg width="2181" height="481" viewBox="0 0 2181 481" fill="none" xmlns="http://www.w3.org/2000/svg">
<g clip-path="url(#clip0_153_148)">
<path opacity="0.4" d="M4.82617 435.407L2171.72 7.922L2180.68 53.356L13.7892 480.841L4.82617 435.407Z" fill="#212121"/>
<path d="M2.33594 429.952L2169.23 2.46704L2178.2 47.901L11.2999 475.387L2.33594 429.952Z" fill="#FF6700"/>
<path d="M2.33594 429.952L2169.23 2.46704L2178.2 47.901L11.2999 475.387L2.33594 429.952Z" stroke="#0C0C0C" stroke-width="4" stroke-miterlimit="10"/>
<path d="M699.602 320.534C701.515 319.846 702.507 317.738 701.819 315.826C701.131 313.913 699.022 312.921 697.11 313.609C695.198 314.297 694.205 316.406 694.894 318.318C695.582 320.23 697.69 321.223 699.602 320.534Z" fill="black"/>
<path d="M691.517 317.971L686.561 318.288C685.846 318.428 685.405 319.15 685.611 319.841C686.779 323.884 689.649 327.369 693.693 329.186C694.355 329.49 695.138 329.155 695.369 328.467L696.269 323.498C696.424 323.07 696.238 322.585 695.825 322.382C694.216 321.601 693.063 320.199 692.553 318.576C692.416 318.136 691.964 317.884 691.513 317.961L691.517 317.971Z" fill="black"/>
<path d="M700.891 310.739L703.017 306.254C703.072 306.09 703.091 305.918 703.074 305.746C703.057 305.575 703.005 305.409 702.92 305.259C702.835 305.109 702.72 304.979 702.581 304.877C702.443 304.775 702.284 304.702 702.116 304.665C698.017 303.728 693.582 304.548 690.02 307.201C689.433 307.636 689.351 308.473 689.836 309.021L693.739 312.218C694.041 312.556 694.559 312.635 694.932 312.373C696.401 311.345 698.187 311.022 699.849 311.358C700.297 311.452 700.74 311.176 700.891 310.739V310.739Z" fill="black"/>
<path d="M702.623 322.168L705.469 326.234C705.584 326.361 705.724 326.462 705.88 326.532C706.037 326.602 706.206 326.639 706.377 326.64C706.548 326.641 706.718 326.607 706.875 326.54C707.032 326.472 707.174 326.373 707.291 326.248C708.739 324.679 709.827 322.813 710.482 320.781C711.136 318.749 711.34 316.599 711.08 314.48C710.99 313.758 710.301 313.261 709.593 313.421L704.888 315.231C704.444 315.327 704.122 315.73 704.161 316.194C704.324 317.974 703.729 319.687 702.608 320.972C702.306 321.315 702.325 321.839 702.627 322.177L702.623 322.168Z" fill="black"/>
<path d="M385.265 382.796C387.177 382.108 388.169 379.999 387.481 378.087C386.793 376.175 384.684 375.182 382.772 375.871C380.86 376.559 379.868 378.667 380.556 380.58C381.244 382.492 383.352 383.484 385.265 382.796Z" fill="black"/>
<path d="M377.179 380.232L372.223 380.549C371.509 380.69 371.067 381.412 371.273 382.103C372.442 386.146 375.311 389.63 379.355 391.448C380.017 391.752 380.8 391.417 381.031 390.728L381.931 385.76C382.086 385.332 381.9 384.846 381.487 384.644C379.878 383.863 378.725 382.461 378.215 380.837C378.078 380.398 377.626 380.146 377.175 380.223L377.179 380.232Z" fill="black"/>
<path d="M386.553 373.001L388.679 368.515C388.734 368.352 388.753 368.179 388.736 368.008C388.72 367.836 388.667 367.671 388.582 367.521C388.497 367.371 388.382 367.241 388.243 367.138C388.105 367.036 387.946 366.964 387.778 366.927C383.679 365.99 379.244 366.81 375.682 369.463C375.095 369.897 375.014 370.734 375.498 371.283L379.401 374.48C379.703 374.818 380.221 374.897 380.594 374.635C382.063 373.607 383.849 373.283 385.511 373.62C385.959 373.714 386.402 373.438 386.553 373.001V373.001Z" fill="black"/>
<path d="M388.286 384.429L391.131 388.496C391.246 388.623 391.386 388.724 391.542 388.794C391.699 388.864 391.868 388.9 392.039 388.902C392.21 388.903 392.38 388.869 392.537 388.801C392.694 388.734 392.836 388.635 392.953 388.51C394.401 386.941 395.49 385.075 396.144 383.043C396.798 381.011 397.002 378.86 396.742 376.741C396.652 376.019 395.963 375.523 395.255 375.682L390.55 377.492C390.107 377.588 389.784 377.991 389.823 378.455C389.986 380.236 389.391 381.948 388.27 383.234C387.968 383.576 387.987 384.101 388.289 384.439L388.286 384.429Z" fill="black"/>
<path d="M72.622 444.304C74.5343 443.616 75.5266 441.508 74.8383 439.596C74.1501 437.683 72.0419 436.691 70.1296 437.379C68.2172 438.067 67.2249 440.176 67.9132 442.088C68.6015 444 70.7096 444.993 72.622 444.304Z" fill="black"/>
<path d="M64.5362 441.741L59.5807 442.058C58.866 442.198 58.4245 442.92 58.6307 443.611C59.7989 447.654 62.6684 451.139 66.7129 452.956C67.3749 453.26 68.1577 452.925 68.3881 452.237L69.2887 447.268C69.4431 446.84 69.2576 446.355 68.8448 446.152C67.2351 445.371 66.0821 443.969 65.5723 442.346C65.4353 441.906 64.9833 441.654 64.5328 441.731L64.5362 441.741Z" fill="black"/>
<path d="M73.9102 434.509L76.0369 430.024C76.0912 429.861 76.1106 429.688 76.0938 429.516C76.077 429.345 76.0244 429.179 75.9395 429.029C75.8545 428.879 75.7391 428.749 75.6007 428.647C75.4622 428.545 75.3038 428.472 75.1357 428.435C71.0361 427.498 66.6018 428.318 63.0398 430.971C62.4523 431.406 62.3709 432.243 62.8552 432.791L66.7585 435.988C67.0607 436.326 67.5782 436.405 67.9515 436.144C69.4202 435.115 71.206 434.792 72.8684 435.129C73.3166 435.222 73.7592 434.946 73.9102 434.509V434.509Z" fill="black"/>
<path d="M75.643 445.938L78.4883 450.004C78.6035 450.131 78.7436 450.232 78.8999 450.302C79.0562 450.372 79.2252 450.409 79.3964 450.41C79.5676 450.411 79.7372 450.377 79.8945 450.31C80.0519 450.242 80.1935 450.143 80.3106 450.018C81.7582 448.449 82.847 446.583 83.5012 444.551C84.1555 442.519 84.3595 440.369 84.0991 438.25C84.0093 437.528 83.3206 437.031 82.6127 437.191L77.9077 439.001C77.464 439.097 77.1414 439.5 77.1809 439.964C77.3433 441.744 76.7482 443.457 75.6273 444.742C75.3254 445.085 75.3442 445.609 75.6463 445.947L75.643 445.938Z" fill="black"/>
<path d="M1013.36 258.766C1015.28 258.078 1016.27 255.97 1015.58 254.057C1014.89 252.145 1012.78 251.153 1010.87 251.841C1008.96 252.529 1007.97 254.637 1008.66 256.55C1009.34 258.462 1011.45 259.454 1013.36 258.766Z" fill="black"/>
<path d="M1005.29 256.199L1000.33 256.516C999.618 256.656 999.176 257.379 999.383 258.07C1000.55 262.113 1003.42 265.597 1007.46 267.415C1008.13 267.719 1008.91 267.384 1009.14 266.695L1010.04 261.726C1010.2 261.299 1010.01 260.813 1009.6 260.611C1007.99 259.83 1006.83 258.427 1006.32 256.804C1006.19 256.365 1005.74 256.113 1005.28 256.19L1005.29 256.199Z" fill="black"/>
<path d="M1014.65 248.971L1016.78 244.486C1016.83 244.322 1016.85 244.149 1016.84 243.978C1016.82 243.807 1016.77 243.641 1016.68 243.491C1016.6 243.341 1016.48 243.211 1016.34 243.109C1016.21 243.006 1016.05 242.934 1015.88 242.897C1011.78 241.96 1007.34 242.78 1003.78 245.433C1003.2 245.868 1003.11 246.705 1003.6 247.253L1007.5 250.45C1007.8 250.788 1008.32 250.867 1008.69 250.605C1010.16 249.577 1011.95 249.253 1013.61 249.59C1014.06 249.684 1014.5 249.408 1014.65 248.971V248.971Z" fill="black"/>
<path d="M1016.4 260.396L1019.24 264.463C1019.36 264.589 1019.5 264.691 1019.65 264.76C1019.81 264.83 1019.98 264.867 1020.15 264.868C1020.32 264.87 1020.49 264.835 1020.65 264.768C1020.8 264.7 1020.95 264.601 1021.06 264.476C1022.51 262.907 1023.6 261.042 1024.25 259.009C1024.91 256.977 1025.11 254.827 1024.85 252.708C1024.76 251.986 1024.07 251.49 1023.37 251.649L1018.66 253.459C1018.22 253.555 1017.89 253.958 1017.93 254.422C1018.1 256.202 1017.5 257.915 1016.38 259.2C1016.08 259.543 1016.1 260.068 1016.4 260.405L1016.4 260.396Z" fill="black"/>
<path d="M1330.11 196.844C1332.02 196.156 1333.01 194.048 1332.33 192.135C1331.64 190.223 1329.53 189.231 1327.62 189.919C1325.7 190.607 1324.71 192.715 1325.4 194.628C1326.09 196.54 1328.2 197.532 1330.11 196.844Z" fill="black"/>
<path d="M1322.03 194.277L1317.08 194.594C1316.36 194.734 1315.92 195.457 1316.13 196.148C1317.3 200.191 1320.17 203.675 1324.21 205.493C1324.87 205.797 1325.65 205.462 1325.89 204.773L1326.79 199.804C1326.94 199.377 1326.75 198.891 1326.34 198.689C1324.73 197.908 1323.58 196.505 1323.07 194.882C1322.93 194.442 1322.48 194.191 1322.03 194.268L1322.03 194.277Z" fill="black"/>
<path d="M1331.4 187.049L1333.53 182.564C1333.58 182.4 1333.6 182.227 1333.58 182.056C1333.57 181.885 1333.51 181.719 1333.43 181.569C1333.34 181.419 1333.23 181.289 1333.09 181.187C1332.95 181.084 1332.79 181.012 1332.62 180.975C1328.52 180.038 1324.09 180.858 1320.53 183.511C1319.94 183.946 1319.86 184.783 1320.34 185.331L1324.25 188.528C1324.55 188.866 1325.07 188.945 1325.44 188.683C1326.91 187.655 1328.69 187.331 1330.36 187.668C1330.8 187.762 1331.25 187.486 1331.4 187.049V187.049Z" fill="black"/>
<path d="M1333.14 198.474L1335.99 202.54C1336.1 202.667 1336.24 202.769 1336.4 202.838C1336.55 202.908 1336.72 202.945 1336.89 202.946C1337.07 202.947 1337.24 202.913 1337.39 202.846C1337.55 202.778 1337.69 202.679 1337.81 202.554C1339.26 200.985 1340.35 199.119 1341 197.087C1341.65 195.055 1341.86 192.905 1341.6 190.786C1341.51 190.064 1340.82 189.567 1340.11 189.727L1335.41 191.537C1334.96 191.633 1334.64 192.036 1334.68 192.5C1334.84 194.28 1334.25 195.993 1333.13 197.278C1332.82 197.621 1332.84 198.145 1333.14 198.483L1333.14 198.474Z" fill="black"/>
<path d="M1645.58 134.32C1647.49 133.631 1648.48 131.523 1647.79 129.611C1647.1 127.698 1645 126.706 1643.08 127.394C1641.17 128.083 1640.18 130.191 1640.87 132.103C1641.56 134.016 1643.66 135.008 1645.58 134.32Z" fill="black"/>
<path d="M1637.5 131.753L1632.54 132.07C1631.83 132.21 1631.39 132.932 1631.59 133.623C1632.76 137.666 1635.63 141.151 1639.68 142.968C1640.34 143.272 1641.12 142.937 1641.35 142.249L1642.25 137.28C1642.41 136.852 1642.22 136.367 1641.81 136.164C1640.2 135.383 1639.05 133.981 1638.54 132.358C1638.4 131.918 1637.95 131.666 1637.5 131.743L1637.5 131.753Z" fill="black"/>
<path d="M1646.87 124.524L1648.99 120.039C1649.05 119.876 1649.07 119.703 1649.05 119.531C1649.03 119.36 1648.98 119.194 1648.89 119.044C1648.81 118.895 1648.69 118.764 1648.56 118.662C1648.42 118.56 1648.26 118.488 1648.09 118.45C1643.99 117.513 1639.56 118.333 1635.99 120.987C1635.41 121.421 1635.33 122.258 1635.81 122.807L1639.71 126.004C1640.02 126.341 1640.53 126.421 1640.91 126.159C1642.38 125.131 1644.16 124.807 1645.82 125.144C1646.27 125.238 1646.71 124.961 1646.87 124.524V124.524Z" fill="black"/>
<path d="M1648.61 135.949L1651.45 140.016C1651.57 140.143 1651.71 140.244 1651.86 140.314C1652.02 140.384 1652.19 140.42 1652.36 140.422C1652.53 140.423 1652.7 140.389 1652.86 140.321C1653.02 140.254 1653.16 140.155 1653.28 140.03C1654.72 138.461 1655.81 136.595 1656.47 134.563C1657.12 132.531 1657.32 130.38 1657.06 128.261C1656.97 127.539 1656.29 127.043 1655.58 127.202L1650.87 129.012C1650.43 129.108 1650.11 129.511 1650.15 129.975C1650.31 131.756 1649.71 133.468 1648.59 134.754C1648.29 135.096 1648.31 135.621 1648.61 135.959L1648.61 135.949Z" fill="black"/>
<path d="M1956 72.5474C1957.91 71.8591 1958.9 69.7509 1958.21 67.8386C1957.53 65.9262 1955.42 64.934 1953.51 65.6222C1951.59 66.3105 1950.6 68.4186 1951.29 70.331C1951.98 72.2433 1954.09 73.2356 1956 72.5474Z" fill="black"/>
<path d="M1947.92 69.9806L1942.97 70.2974C1942.25 70.4377 1941.81 71.1599 1942.02 71.8509C1943.18 75.8942 1946.05 79.3784 1950.1 81.1961C1950.76 81.4999 1951.54 81.165 1951.77 80.4763L1952.67 75.5077C1952.83 75.0802 1952.64 74.5943 1952.23 74.3922C1950.62 73.6111 1949.47 72.2087 1948.96 70.5854C1948.82 70.1458 1948.37 69.894 1947.92 69.9712L1947.92 69.9806Z" fill="black"/>
<path d="M1957.29 62.7521L1959.41 58.2669C1959.47 58.1036 1959.49 57.9306 1959.47 57.7592C1959.45 57.5879 1959.4 57.422 1959.32 57.2722C1959.23 57.1225 1959.12 56.9922 1958.98 56.8899C1958.84 56.7876 1958.68 56.7155 1958.51 56.6783C1954.41 55.7412 1949.98 56.5613 1946.42 59.2143C1945.83 59.6489 1945.75 60.4859 1946.23 61.0343L1950.14 64.2314C1950.44 64.569 1950.96 64.6485 1951.33 64.3866C1952.8 63.3585 1954.58 63.0346 1956.25 63.3716C1956.69 63.4653 1957.14 63.1891 1957.29 62.7521V62.7521Z" fill="black"/>
<path d="M1959.03 74.177L1961.88 78.2438C1961.99 78.3704 1962.13 78.4719 1962.29 78.5417C1962.44 78.6115 1962.61 78.6483 1962.78 78.6496C1962.95 78.6508 1963.12 78.6167 1963.28 78.5492C1963.44 78.4817 1963.58 78.3824 1963.7 78.2575C1965.14 76.6883 1966.23 74.8229 1966.89 72.7906C1967.54 70.7584 1967.75 68.6082 1967.49 66.4892C1967.4 65.7669 1966.71 65.2708 1966 65.43L1961.29 67.2402C1960.85 67.3361 1960.53 67.7392 1960.57 68.2033C1960.73 69.9834 1960.13 71.6962 1959.01 72.9817C1958.71 73.3242 1958.73 73.8488 1959.03 74.1864L1959.03 74.177Z" fill="black"/>
<path d="M427.442 355.319L432.31 354.364L443.496 373.447L446.646 351.553L451.515 350.599L446.905 380.481L442.995 381.248L427.442 355.319ZM424.816 355.834L429.665 354.883L434.463 374.681L436.019 382.616L430.288 383.74L424.816 355.834ZM449.291 351.035L454.16 350.08L459.632 377.986L453.882 379.113L452.326 371.179L449.291 351.035ZM465.314 347.893L470.786 375.799L465.056 376.922L459.584 349.016L465.314 347.893ZM493.412 342.383L498.884 370.289L493.134 371.417L478.254 354.909L481.922 373.615L476.172 374.743L470.7 346.837L476.45 345.709L491.353 362.232L487.681 343.507L493.412 342.383ZM510.317 339.068L515.789 366.974L510.058 368.098L504.586 340.192L510.317 339.068ZM518.903 337.385L519.786 341.889L497.017 346.353L496.134 341.849L518.903 337.385ZM537.034 333.829L542.506 361.735L536.776 362.859L531.304 334.953L537.034 333.829ZM560.988 350.528C560.891 350.03 560.726 349.598 560.495 349.232C560.274 348.85 559.933 348.532 559.472 348.278C559.008 348.011 558.386 347.781 557.606 347.589C556.825 347.397 555.831 347.234 554.624 347.099C553.278 346.938 551.987 346.714 550.75 346.426C549.525 346.135 548.412 345.736 547.41 345.229C546.419 344.707 545.585 344.041 544.909 343.232C544.245 342.42 543.796 341.413 543.56 340.212C543.332 339.05 543.381 337.945 543.707 336.9C544.03 335.841 544.585 334.883 545.372 334.025C546.157 333.155 547.139 332.412 548.319 331.796C549.511 331.177 550.861 330.72 552.369 330.424C554.426 330.021 556.294 330.039 557.973 330.48C559.651 330.92 561.039 331.703 562.135 332.828C563.244 333.951 563.962 335.343 564.287 337.004L558.576 338.124C558.415 337.306 558.103 336.624 557.637 336.079C557.182 335.518 556.575 335.126 555.815 334.904C555.067 334.679 554.176 334.668 553.141 334.87C552.145 335.066 551.344 335.382 550.74 335.819C550.133 336.243 549.714 336.743 549.482 337.32C549.247 337.883 549.191 338.478 549.314 339.104C549.407 339.577 549.606 339.982 549.911 340.321C550.229 340.656 550.657 340.944 551.195 341.183C551.733 341.423 552.375 341.622 553.123 341.781C553.87 341.939 554.725 342.07 555.688 342.173C557.299 342.335 558.735 342.591 559.998 342.94C561.273 343.287 562.371 343.742 563.291 344.305C564.211 344.867 564.957 345.564 565.531 346.393C566.105 347.223 566.505 348.212 566.731 349.362C566.969 350.576 566.945 351.709 566.66 352.76C566.376 353.811 565.851 354.756 565.087 355.596C564.323 356.436 563.355 357.15 562.183 357.738C561.011 358.326 559.659 358.77 558.125 359.071C556.745 359.341 555.35 359.429 553.938 359.335C552.523 359.227 551.194 358.911 549.95 358.385C548.719 357.857 547.664 357.082 546.787 356.059C545.91 355.037 545.317 353.74 545.009 352.169L550.778 351.037C550.949 351.906 551.227 352.615 551.613 353.163C551.999 353.711 552.471 354.122 553.029 354.398C553.6 354.67 554.241 354.823 554.951 354.857C555.673 354.888 556.443 354.823 557.261 354.662C558.258 354.467 559.048 354.166 559.632 353.76C560.228 353.351 560.631 352.867 560.84 352.309C561.062 351.748 561.111 351.154 560.988 350.528ZM598.915 346.017L599.794 350.502L585.745 353.257L584.866 348.772L598.915 346.017ZM582.133 324.986L587.605 352.892L581.855 354.02L576.383 326.114L582.133 324.986ZM603.733 320.751L609.205 348.657L603.474 349.78L598.002 321.874L603.733 320.751ZM623.51 339.801L625.755 316.432L632.157 315.177L627.911 344.989L623.695 345.815L623.51 339.801ZM613.124 318.909L624.009 339.703L626.148 345.334L621.893 346.169L606.761 320.157L613.124 318.909ZM658.081 334.415L658.961 338.9L644.107 341.813L643.227 337.328L658.081 334.415ZM640.513 313.538L645.985 341.445L640.235 342.572L634.763 314.666L640.513 313.538ZM653.781 322.739L654.638 327.109L641.72 329.642L640.863 325.272L653.781 322.739ZM653.469 310.998L654.353 315.502L639.518 318.411L638.635 313.907L653.469 310.998Z" fill="black"/>
<path d="M112.732 416.932L117.6 415.978L128.786 435.061L131.936 413.167L136.805 412.212L132.195 442.095L128.285 442.862L112.732 416.932ZM110.106 417.447L114.955 416.497L119.753 436.295L121.309 444.23L115.578 445.353L110.106 417.447ZM134.581 412.648L139.45 411.693L144.922 439.6L139.172 440.727L137.616 432.792L134.581 412.648ZM150.604 409.506L156.076 437.412L150.346 438.536L144.874 410.63L150.604 409.506ZM178.702 403.997L184.174 431.903L178.424 433.03L163.544 416.522L167.212 435.229L161.462 436.356L155.99 408.45L161.74 407.323L176.643 423.846L172.971 405.12L178.702 403.997ZM195.607 400.682L201.079 428.588L195.348 429.712L189.876 401.806L195.607 400.682ZM204.193 398.998L205.076 403.502L182.307 407.967L181.424 403.463L204.193 398.998ZM222.324 395.443L227.796 423.349L222.066 424.473L216.594 396.567L222.324 395.443ZM246.278 412.142C246.181 411.643 246.016 411.211 245.785 410.845C245.565 410.464 245.224 410.146 244.762 409.891C244.299 409.624 243.676 409.394 242.896 409.203C242.115 409.011 241.121 408.847 239.914 408.712C238.568 408.552 237.277 408.327 236.04 408.039C234.815 407.748 233.702 407.35 232.7 406.843C231.709 406.321 230.875 405.655 230.199 404.845C229.535 404.033 229.086 403.027 228.85 401.826C228.622 400.663 228.671 399.559 228.997 398.513C229.32 397.455 229.875 396.496 230.663 395.639C231.447 394.769 232.429 394.025 233.609 393.409C234.801 392.791 236.151 392.333 237.659 392.038C239.716 391.634 241.584 391.653 243.263 392.093C244.941 392.534 246.329 393.317 247.425 394.442C248.534 395.564 249.252 396.956 249.577 398.617L243.866 399.737C243.706 398.92 243.393 398.238 242.927 397.692C242.472 397.131 241.865 396.74 241.105 396.517C240.357 396.292 239.466 396.281 238.431 396.484C237.435 396.679 236.634 396.996 236.03 397.433C235.423 397.857 235.004 398.357 234.772 398.933C234.537 399.497 234.481 400.091 234.604 400.718C234.697 401.19 234.896 401.596 235.201 401.934C235.519 402.27 235.947 402.557 236.485 402.797C237.023 403.036 237.665 403.235 238.413 403.394C239.161 403.553 240.015 403.684 240.978 403.787C242.589 403.949 244.025 404.204 245.288 404.554C246.563 404.901 247.661 405.356 248.581 405.918C249.501 406.481 250.247 407.177 250.821 408.007C251.395 408.836 251.795 409.826 252.021 410.976C252.259 412.19 252.235 413.322 251.95 414.373C251.666 415.424 251.141 416.37 250.377 417.209C249.613 418.049 248.645 418.763 247.473 419.351C246.301 419.939 244.949 420.384 243.415 420.684C242.035 420.955 240.64 421.043 239.228 420.948C237.814 420.841 236.484 420.524 235.24 419.998C234.009 419.47 232.954 418.695 232.077 417.673C231.2 416.651 230.607 415.354 230.299 413.782L236.068 412.651C236.239 413.52 236.517 414.228 236.903 414.776C237.289 415.324 237.761 415.736 238.319 416.011C238.89 416.284 239.531 416.437 240.241 416.47C240.963 416.501 241.733 416.436 242.551 416.276C243.548 416.081 244.338 415.78 244.922 415.373C245.518 414.964 245.921 414.481 246.13 413.922C246.352 413.361 246.401 412.768 246.278 412.142ZM284.205 407.631L285.084 412.115L271.036 414.87L270.156 410.385L284.205 407.631ZM267.423 386.6L272.895 414.506L267.145 415.633L261.673 387.727L267.423 386.6ZM289.023 382.364L294.495 410.27L288.764 411.394L283.292 383.488L289.023 382.364ZM308.801 401.414L311.045 378.046L317.447 376.791L313.201 406.602L308.985 407.429L308.801 401.414ZM298.414 380.523L309.299 401.317L311.438 406.948L307.183 407.782L292.051 381.77L298.414 380.523ZM343.371 396.029L344.251 400.514L329.397 403.426L328.517 398.941L343.371 396.029ZM325.803 375.152L331.275 403.058L325.525 404.186L320.053 376.279L325.803 375.152ZM339.071 384.353L339.928 388.723L327.01 391.256L326.153 386.886L339.071 384.353ZM338.759 372.611L339.643 377.115L324.808 380.024L323.925 375.52L338.759 372.611Z" fill="black"/>
<path d="M739.899 293.238L744.767 292.284L755.953 311.367L759.103 289.472L763.972 288.518L759.362 318.401L755.452 319.167L739.899 293.238ZM737.273 293.753L742.122 292.802L746.92 312.601L748.476 320.535L742.745 321.659L737.273 293.753ZM761.748 288.954L766.617 287.999L772.089 315.905L766.339 317.033L764.783 309.098L761.748 288.954ZM777.771 285.812L783.243 313.718L777.513 314.842L772.041 286.936L777.771 285.812ZM805.869 280.302L811.341 308.208L805.591 309.336L790.711 292.828L794.379 311.534L788.629 312.662L783.157 284.756L788.907 283.628L803.81 300.152L800.138 281.426L805.869 280.302ZM822.774 276.988L828.246 304.894L822.515 306.017L817.043 278.111L822.774 276.988ZM831.36 275.304L832.243 279.808L809.474 284.273L808.591 279.769L831.36 275.304ZM849.491 271.749L854.963 299.655L849.233 300.778L843.761 272.872L849.491 271.749ZM873.445 288.447C873.348 287.949 873.183 287.517 872.952 287.151C872.731 286.77 872.391 286.452 871.929 286.197C871.466 285.93 870.843 285.7 870.063 285.508C869.282 285.316 868.288 285.153 867.081 285.018C865.735 284.857 864.444 284.633 863.207 284.345C861.982 284.054 860.869 283.656 859.867 283.149C858.876 282.627 858.042 281.961 857.366 281.151C856.702 280.339 856.253 279.333 856.017 278.132C855.789 276.969 855.838 275.865 856.164 274.819C856.487 273.76 857.042 272.802 857.83 271.945C858.614 271.074 859.596 270.331 860.776 269.715C861.968 269.096 863.318 268.639 864.826 268.344C866.883 267.94 868.751 267.959 870.43 268.399C872.108 268.84 873.496 269.622 874.592 270.748C875.701 271.87 876.419 273.262 876.744 274.923L871.033 276.043C870.873 275.225 870.56 274.544 870.094 273.998C869.639 273.437 869.032 273.045 868.272 272.823C867.524 272.598 866.633 272.587 865.598 272.79C864.602 272.985 863.801 273.301 863.197 273.738C862.59 274.163 862.171 274.663 861.939 275.239C861.704 275.802 861.648 276.397 861.771 277.023C861.864 277.496 862.063 277.902 862.368 278.24C862.686 278.576 863.114 278.863 863.652 279.103C864.19 279.342 864.832 279.541 865.58 279.7C866.328 279.858 867.182 279.989 868.145 280.093C869.756 280.254 871.192 280.51 872.455 280.86C873.73 281.206 874.828 281.661 875.748 282.224C876.668 282.787 877.414 283.483 877.988 284.312C878.562 285.142 878.962 286.132 879.188 287.282C879.426 288.496 879.402 289.628 879.117 290.679C878.833 291.73 878.308 292.675 877.544 293.515C876.78 294.355 875.812 295.069 874.64 295.657C873.468 296.245 872.116 296.689 870.582 296.99C869.202 297.261 867.807 297.349 866.395 297.254C864.981 297.146 863.651 296.83 862.407 296.304C861.176 295.776 860.121 295.001 859.244 293.979C858.367 292.957 857.774 291.66 857.466 290.088L863.235 288.957C863.406 289.826 863.684 290.534 864.07 291.082C864.456 291.63 864.928 292.042 865.486 292.317C866.057 292.59 866.698 292.743 867.408 292.776C868.13 292.807 868.9 292.742 869.718 292.582C870.715 292.386 871.505 292.085 872.089 291.679C872.685 291.27 873.088 290.787 873.297 290.228C873.519 289.667 873.568 289.074 873.445 288.447ZM911.372 283.936L912.251 288.421L898.203 291.176L897.323 286.691L911.372 283.936ZM894.59 262.905L900.062 290.811L894.312 291.939L888.84 264.033L894.59 262.905ZM916.19 258.67L921.662 286.576L915.931 287.7L910.459 259.794L916.19 258.67ZM935.968 277.72L938.212 254.352L944.614 253.096L940.368 282.908L936.152 283.735L935.968 277.72ZM925.581 256.828L936.466 277.623L938.605 283.254L934.35 284.088L919.218 258.076L925.581 256.828ZM970.538 272.335L971.418 276.819L956.564 279.732L955.684 275.247L970.538 272.335ZM952.97 251.458L958.442 279.364L952.692 280.491L947.22 252.585L952.97 251.458ZM966.238 260.659L967.095 265.029L954.177 267.562L953.32 263.192L966.238 260.659ZM965.926 248.917L966.81 253.421L951.975 256.33L951.092 251.826L965.926 248.917Z" fill="black"/>
<path d="M1055.7 231.655L1060.57 230.7L1071.76 249.783L1074.91 227.889L1079.78 226.934L1075.17 256.817L1071.26 257.584L1055.7 231.655ZM1053.08 232.17L1057.93 231.219L1062.72 251.017L1064.28 258.952L1058.55 260.076L1053.08 232.17ZM1077.55 227.37L1082.42 226.416L1087.89 254.322L1082.14 255.449L1080.59 247.514L1077.55 227.37ZM1093.58 224.228L1099.05 252.134L1093.32 253.258L1087.85 225.352L1093.58 224.228ZM1121.67 218.719L1127.15 246.625L1121.4 247.752L1106.52 231.245L1110.18 249.951L1104.43 251.078L1098.96 223.172L1104.71 222.045L1119.61 238.568L1115.94 219.842L1121.67 218.719ZM1138.58 215.404L1144.05 243.31L1138.32 244.434L1132.85 216.528L1138.58 215.404ZM1147.16 213.72L1148.05 218.224L1125.28 222.689L1124.4 218.185L1147.16 213.72ZM1165.3 210.165L1170.77 238.071L1165.04 239.195L1159.57 211.289L1165.3 210.165ZM1189.25 226.864C1189.15 226.366 1188.99 225.933 1188.76 225.567C1188.54 225.186 1188.2 224.868 1187.73 224.614C1187.27 224.346 1186.65 224.117 1185.87 223.925C1185.09 223.733 1184.09 223.569 1182.89 223.435C1181.54 223.274 1180.25 223.049 1179.01 222.761C1177.79 222.471 1176.67 222.072 1175.67 221.565C1174.68 221.043 1173.85 220.377 1173.17 219.568C1172.51 218.756 1172.06 217.749 1171.82 216.548C1171.59 215.385 1171.64 214.281 1171.97 213.235C1172.29 212.177 1172.85 211.219 1173.63 210.361C1174.42 209.491 1175.4 208.747 1176.58 208.131C1177.77 207.513 1179.12 207.056 1180.63 206.76C1182.69 206.357 1184.56 206.375 1186.23 206.816C1187.91 207.256 1189.3 208.039 1190.4 209.164C1191.51 210.287 1192.22 211.678 1192.55 213.34L1186.84 214.46C1186.68 213.642 1186.36 212.96 1185.9 212.414C1185.44 211.853 1184.84 211.462 1184.08 211.239C1183.33 211.014 1182.44 211.003 1181.4 211.206C1180.41 211.402 1179.61 211.718 1179 212.155C1178.39 212.579 1177.98 213.079 1177.74 213.655C1177.51 214.219 1177.45 214.814 1177.58 215.44C1177.67 215.912 1177.87 216.318 1178.17 216.656C1178.49 216.992 1178.92 217.28 1179.46 217.519C1179.99 217.759 1180.64 217.958 1181.38 218.116C1182.13 218.275 1182.99 218.406 1183.95 218.509C1185.56 218.671 1187 218.926 1188.26 219.276C1189.54 219.623 1190.63 220.078 1191.55 220.64C1192.47 221.203 1193.22 221.899 1193.79 222.729C1194.37 223.558 1194.77 224.548 1194.99 225.698C1195.23 226.912 1195.21 228.044 1194.92 229.095C1194.64 230.146 1194.11 231.092 1193.35 231.932C1192.58 232.771 1191.62 233.485 1190.44 234.073C1189.27 234.661 1187.92 235.106 1186.39 235.406C1185.01 235.677 1183.61 235.765 1182.2 235.67C1180.79 235.563 1179.46 235.246 1178.21 234.721C1176.98 234.192 1175.93 233.417 1175.05 232.395C1174.17 231.373 1173.58 230.076 1173.27 228.504L1179.04 227.373C1179.21 228.242 1179.49 228.95 1179.87 229.498C1180.26 230.046 1180.73 230.458 1181.29 230.733C1181.86 231.006 1182.5 231.159 1183.21 231.192C1183.93 231.223 1184.7 231.159 1185.52 230.998C1186.52 230.803 1187.31 230.502 1187.89 230.095C1188.49 229.687 1188.89 229.203 1189.1 228.644C1189.32 228.083 1189.37 227.49 1189.25 226.864ZM1227.18 222.353L1228.06 226.838L1214.01 229.592L1213.13 225.107L1227.18 222.353ZM1210.39 201.322L1215.87 229.228L1210.12 230.355L1204.64 202.449L1210.39 201.322ZM1231.99 197.086L1237.47 224.992L1231.74 226.116L1226.26 198.21L1231.99 197.086ZM1251.77 216.137L1254.02 192.768L1260.42 191.513L1256.17 221.324L1251.96 222.151L1251.77 216.137ZM1241.39 195.245L1252.27 216.039L1254.41 221.67L1250.15 222.504L1235.02 196.492L1241.39 195.245ZM1286.34 210.751L1287.22 215.236L1272.37 218.149L1271.49 213.664L1286.34 210.751ZM1268.77 189.874L1274.25 217.78L1268.5 218.908L1263.02 191.002L1268.77 189.874ZM1282.04 199.075L1282.9 203.445L1269.98 205.978L1269.13 201.608L1282.04 199.075ZM1281.73 187.334L1282.61 191.838L1267.78 194.747L1266.9 190.242L1281.73 187.334Z" fill="black"/>
<path d="M1374.33 169.055L1379.2 168.101L1390.39 187.184L1393.54 165.29L1398.4 164.335L1393.79 194.218L1389.88 194.985L1374.33 169.055ZM1371.71 169.57L1376.55 168.619L1381.35 188.418L1382.91 196.353L1377.18 197.476L1371.71 169.57ZM1396.18 164.771L1401.05 163.816L1406.52 191.722L1400.77 192.85L1399.22 184.915L1396.18 164.771ZM1412.2 161.629L1417.68 189.535L1411.95 190.659L1406.47 162.753L1412.2 161.629ZM1440.3 156.119L1445.77 184.025L1440.02 185.153L1425.14 168.645L1428.81 187.351L1423.06 188.479L1417.59 160.573L1423.34 159.445L1438.24 175.969L1434.57 157.243L1440.3 156.119ZM1457.21 152.805L1462.68 180.711L1456.95 181.834L1451.48 153.928L1457.21 152.805ZM1465.79 151.121L1466.68 155.625L1443.91 160.09L1443.02 155.586L1465.79 151.121ZM1483.92 147.566L1489.4 175.472L1483.67 176.595L1478.19 148.689L1483.92 147.566ZM1507.88 164.264C1507.78 163.766 1507.62 163.334 1507.38 162.968C1507.16 162.587 1506.82 162.269 1506.36 162.014C1505.9 161.747 1505.28 161.517 1504.5 161.325C1503.71 161.133 1502.72 160.97 1501.51 160.835C1500.17 160.674 1498.88 160.45 1497.64 160.162C1496.41 159.871 1495.3 159.473 1494.3 158.966C1493.31 158.444 1492.47 157.778 1491.8 156.968C1491.14 156.156 1490.69 155.15 1490.45 153.949C1490.22 152.786 1490.27 151.682 1490.6 150.636C1490.92 149.577 1491.47 148.619 1492.26 147.762C1493.05 146.891 1494.03 146.148 1495.21 145.532C1496.4 144.913 1497.75 144.456 1499.26 144.161C1501.32 143.757 1503.18 143.776 1504.86 144.216C1506.54 144.657 1507.93 145.439 1509.02 146.565C1510.13 147.687 1510.85 149.079 1511.18 150.74L1505.47 151.86C1505.31 151.042 1504.99 150.361 1504.53 149.815C1504.07 149.254 1503.46 148.862 1502.7 148.64C1501.96 148.415 1501.07 148.404 1500.03 148.607C1499.03 148.802 1498.23 149.118 1497.63 149.555C1497.02 149.98 1496.6 150.48 1496.37 151.056C1496.14 151.619 1496.08 152.214 1496.2 152.84C1496.3 153.313 1496.5 153.719 1496.8 154.057C1497.12 154.393 1497.55 154.68 1498.08 154.92C1498.62 155.159 1499.26 155.358 1500.01 155.517C1500.76 155.675 1501.62 155.806 1502.58 155.91C1504.19 156.071 1505.62 156.327 1506.89 156.677C1508.16 157.024 1509.26 157.478 1510.18 158.041C1511.1 158.604 1511.85 159.3 1512.42 160.129C1513 160.959 1513.39 161.949 1513.62 163.099C1513.86 164.313 1513.83 165.445 1513.55 166.496C1513.27 167.547 1512.74 168.492 1511.98 169.332C1511.21 170.172 1510.24 170.886 1509.07 171.474C1507.9 172.062 1506.55 172.506 1505.02 172.807C1503.64 173.078 1502.24 173.166 1500.83 173.071C1499.41 172.963 1498.08 172.647 1496.84 172.121C1495.61 171.593 1494.55 170.818 1493.68 169.796C1492.8 168.774 1492.21 167.477 1491.9 165.905L1497.67 164.774C1497.84 165.643 1498.12 166.351 1498.5 166.899C1498.89 167.447 1499.36 167.859 1499.92 168.134C1500.49 168.407 1501.13 168.56 1501.84 168.593C1502.56 168.624 1503.33 168.559 1504.15 168.399C1505.15 168.203 1505.94 167.902 1506.52 167.496C1507.12 167.087 1507.52 166.604 1507.73 166.045C1507.95 165.484 1508 164.891 1507.88 164.264ZM1545.8 159.753L1546.68 164.238L1532.64 166.993L1531.76 162.508L1545.8 159.753ZM1529.02 138.722L1534.49 166.628L1528.74 167.756L1523.27 139.85L1529.02 138.722ZM1550.62 134.487L1556.09 162.393L1550.36 163.517L1544.89 135.611L1550.62 134.487ZM1570.4 153.537L1572.64 130.169L1579.05 128.913L1574.8 158.725L1570.58 159.552L1570.4 153.537ZM1560.01 132.645L1570.9 153.44L1573.04 159.071L1568.78 159.905L1553.65 133.893L1560.01 132.645ZM1604.97 148.152L1605.85 152.637L1591 155.549L1590.12 151.064L1604.97 148.152ZM1587.4 127.275L1592.87 155.181L1587.12 156.308L1581.65 128.402L1587.4 127.275ZM1600.67 136.476L1601.53 140.846L1588.61 143.379L1587.75 139.009L1600.67 136.476ZM1600.36 124.734L1601.24 129.238L1586.41 132.147L1585.52 127.643L1600.36 124.734Z" fill="black"/>
<path d="M1685.69 106.944L1690.56 105.99L1701.75 125.073L1704.9 103.179L1709.77 102.224L1705.16 132.107L1701.25 132.874L1685.69 106.944ZM1683.07 107.459L1687.92 106.508L1692.72 126.307L1694.27 134.242L1688.54 135.365L1683.07 107.459ZM1707.54 102.66L1712.41 101.705L1717.88 129.612L1712.13 130.739L1710.58 122.804L1707.54 102.66ZM1723.57 99.5181L1729.04 127.424L1723.31 128.548L1717.84 100.642L1723.57 99.5181ZM1751.66 94.0085L1757.14 121.915L1751.39 123.042L1736.51 106.534L1740.17 125.241L1734.42 126.368L1728.95 98.4621L1734.7 97.3346L1749.61 113.858L1745.93 95.1323L1751.66 94.0085ZM1768.57 90.6938L1774.04 118.6L1768.31 119.724L1762.84 91.8175L1768.57 90.6938ZM1777.16 89.0101L1778.04 93.5141L1755.27 97.9789L1754.39 93.4749L1777.16 89.0101ZM1795.29 85.4548L1800.76 113.361L1795.03 114.485L1789.56 86.5785L1795.29 85.4548ZM1819.24 102.154C1819.14 101.655 1818.98 101.223 1818.75 100.857C1818.53 100.476 1818.19 100.158 1817.73 99.9033C1817.26 99.636 1816.64 99.4064 1815.86 99.2145C1815.08 99.0226 1814.08 98.8592 1812.88 98.7244C1811.53 98.5636 1810.24 98.3391 1809 98.051C1807.78 97.7604 1806.66 97.3617 1805.66 96.8548C1804.67 96.3327 1803.84 95.6669 1803.16 94.8574C1802.5 94.0454 1802.05 93.0389 1801.81 91.8378C1801.59 90.6751 1801.63 89.5708 1801.96 88.5251C1802.28 87.4665 1802.84 86.5085 1803.63 85.6509C1804.41 84.7805 1805.39 84.0372 1806.57 83.4212C1807.76 82.8026 1809.11 82.3454 1810.62 82.0498C1812.68 81.6464 1814.55 81.6649 1816.23 82.1054C1817.9 82.5458 1819.29 83.3286 1820.39 84.4538C1821.5 85.5764 1822.21 86.9683 1822.54 88.6294L1816.83 89.7493C1816.67 88.9316 1816.36 88.2498 1815.89 87.7042C1815.44 87.1432 1814.83 86.7515 1814.07 86.529C1813.32 86.3041 1812.43 86.293 1811.39 86.496C1810.4 86.6914 1809.6 87.0076 1808.99 87.4445C1808.39 87.8687 1807.97 88.3689 1807.73 88.9452C1807.5 89.5086 1807.44 90.1034 1807.57 90.7295C1807.66 91.2023 1807.86 91.6078 1808.16 91.946C1808.48 92.2817 1808.91 92.5693 1809.45 92.8088C1809.99 93.0484 1810.63 93.2474 1811.38 93.406C1812.12 93.5646 1812.98 93.6955 1813.94 93.7987C1815.55 93.9605 1816.99 94.2162 1818.25 94.5657C1819.53 94.9127 1820.62 95.3675 1821.54 95.9302C1822.46 96.4929 1823.21 97.189 1823.78 98.0186C1824.36 98.8481 1824.76 99.8379 1824.98 100.988C1825.22 102.202 1825.2 103.334 1824.91 104.385C1824.63 105.436 1824.1 106.382 1823.34 107.221C1822.58 108.061 1821.61 108.775 1820.44 109.363C1819.26 109.951 1817.91 110.396 1816.38 110.696C1815 110.967 1813.6 111.055 1812.19 110.96C1810.78 110.853 1809.45 110.536 1808.2 110.01C1806.97 109.482 1805.92 108.707 1805.04 107.685C1804.16 106.663 1803.57 105.366 1803.26 103.794L1809.03 102.663C1809.2 103.532 1809.48 104.24 1809.87 104.788C1810.25 105.336 1810.72 105.748 1811.28 106.023C1811.85 106.296 1812.49 106.449 1813.2 106.482C1813.93 106.513 1814.7 106.448 1815.51 106.288C1816.51 106.093 1817.3 105.792 1817.88 105.385C1818.48 104.976 1818.88 104.493 1819.09 103.934C1819.31 103.373 1819.36 102.78 1819.24 102.154ZM1857.17 97.6425L1858.05 102.127L1844 104.882L1843.12 100.397L1857.17 97.6425ZM1840.39 76.6116L1845.86 104.518L1840.11 105.645L1834.64 77.7391L1840.39 76.6116ZM1861.99 72.376L1867.46 100.282L1861.73 101.406L1856.26 73.4997L1861.99 72.376ZM1881.76 91.4264L1884.01 68.0578L1890.41 66.8025L1886.16 96.614L1881.95 97.4409L1881.76 91.4264ZM1871.38 70.5345L1882.26 91.3287L1884.4 96.9598L1880.15 97.7941L1865.01 71.7822L1871.38 70.5345ZM1916.33 86.0408L1917.21 90.5257L1902.36 93.4383L1901.48 88.9534L1916.33 86.0408ZM1898.77 65.1639L1904.24 93.07L1898.49 94.1975L1893.02 66.2914L1898.77 65.1639ZM1912.03 74.3648L1912.89 78.7347L1899.97 81.2677L1899.12 76.8978L1912.03 74.3648ZM1911.72 62.6234L1912.61 67.1274L1897.77 70.0363L1896.89 65.5322L1911.72 62.6234Z" fill="black"/>
<path d="M1988.25 46.9407L1993.12 45.9861L2004.31 65.0692L2007.46 43.1749L2012.32 42.2203L2007.71 72.1032L2003.8 72.8699L1988.25 46.9407ZM1985.63 47.4555L1990.47 46.5047L1995.27 66.3031L1996.83 74.2379L1991.1 75.3616L1985.63 47.4555ZM2010.1 42.6562L2014.97 41.7017L2020.44 69.6077L2014.69 70.7352L2013.14 62.8004L2010.1 42.6562ZM2026.12 39.5143L2031.6 67.4204L2025.87 68.5441L2020.39 40.6381L2026.12 39.5143ZM2054.22 34.0048L2059.69 61.9108L2053.94 63.0383L2039.06 46.5306L2042.73 65.2369L2036.98 66.3643L2031.51 38.4583L2037.26 37.3308L2052.16 53.8539L2048.49 35.1285L2054.22 34.0048ZM2071.13 30.69L2076.6 58.596L2070.87 59.7198L2065.4 31.8137L2071.13 30.69ZM2079.71 29.0063L2080.6 33.5103L2057.83 37.9751L2056.94 33.4711L2079.71 29.0063ZM2097.84 25.451L2103.32 53.357L2097.59 54.4807L2092.11 26.5747L2097.84 25.451ZM2121.8 42.1499C2121.7 41.6515 2121.54 41.2194 2121.3 40.8533C2121.08 40.472 2120.74 40.1541 2120.28 39.8995C2119.82 39.6322 2119.2 39.4026 2118.42 39.2107C2117.63 39.0188 2116.64 38.8554 2115.43 38.7207C2114.09 38.5598 2112.8 38.3353 2111.56 38.0472C2110.33 37.7566 2109.22 37.3579 2108.22 36.8511C2107.23 36.3289 2106.39 35.6631 2105.72 34.8537C2105.05 34.0417 2104.61 33.0351 2104.37 31.834C2104.14 30.6713 2104.19 29.567 2104.52 28.5213C2104.84 27.4627 2105.39 26.5047 2106.18 25.6471C2106.97 24.7767 2107.95 24.0335 2109.13 23.4174C2110.32 22.7988 2111.67 22.3417 2113.18 22.046C2115.24 21.6426 2117.1 21.6611 2118.78 22.1016C2120.46 22.542 2121.85 23.3248 2122.94 24.45C2124.05 25.5726 2124.77 26.9645 2125.1 28.6256L2119.39 29.7455C2119.23 28.9278 2118.91 28.2461 2118.45 27.7004C2117.99 27.1394 2117.38 26.7477 2116.62 26.5253C2115.88 26.3003 2114.99 26.2893 2113.95 26.4922C2112.95 26.6876 2112.15 27.0038 2111.55 27.4408C2110.94 27.8649 2110.52 28.3651 2110.29 28.9414C2110.06 29.5048 2110 30.0996 2110.12 30.7257C2110.22 31.1985 2110.42 31.604 2110.72 31.9422C2111.04 32.2779 2111.47 32.5656 2112 32.8051C2112.54 33.0446 2113.18 33.2436 2113.93 33.4022C2114.68 33.5608 2115.54 33.6917 2116.5 33.7949C2118.11 33.9567 2119.54 34.2124 2120.81 34.5619C2122.08 34.9089 2123.18 35.3637 2124.1 35.9264C2125.02 36.4891 2125.77 37.1853 2126.34 38.0148C2126.91 38.8443 2127.31 39.8341 2127.54 40.9841C2127.78 42.1979 2127.75 43.3304 2127.47 44.3814C2127.19 45.4324 2126.66 46.3778 2125.9 47.2176C2125.13 48.0574 2124.16 48.7714 2122.99 49.3594C2121.82 49.9474 2120.47 50.3918 2118.93 50.6924C2117.56 50.963 2116.16 51.051 2114.75 50.9563C2113.33 50.8488 2112 50.5323 2110.76 50.0066C2109.53 49.4785 2108.47 48.7033 2107.6 47.6811C2106.72 46.659 2106.13 45.362 2105.82 43.7904L2111.59 42.6592C2111.76 43.528 2112.04 44.2364 2112.42 44.7844C2112.81 45.3323 2113.28 45.7439 2113.84 46.0193C2114.41 46.2921 2115.05 46.4452 2115.76 46.4785C2116.48 46.5093 2117.25 46.4445 2118.07 46.2842C2119.07 46.0887 2119.86 45.7878 2120.44 45.3815C2121.04 44.9726 2121.44 44.4889 2121.65 43.9305C2121.87 43.3695 2121.92 42.776 2121.8 42.1499ZM2159.72 37.6387L2160.6 42.1236L2146.56 44.8784L2145.68 40.3935L2159.72 37.6387ZM2142.94 16.6078L2148.41 44.5139L2142.66 45.6413L2137.19 17.7353L2142.94 16.6078Z" fill="black"/>
</g>
<defs>
<clipPath id="clip0_153_148">
<rect width="2180.68" height="480.84" fill="white"/>
</clipPath>
</defs>
</svg>
